# Blender v2.78 (sub 0) OBJ File: 'tt.blend'
# www.blender.org
mtllib tt_fc.mtl
o tt_collision_Cylinder.000
v -0.000000 -0.000000 -2.000000
v 0.618034 -0.000000 -1.902113
v 1.175570 -0.000000 -1.618034
v 1.618034 -0.000000 -1.175570
v 1.902113 -0.000000 -0.618034
v 2.000000 -0.000000 0.000000
v 1.902113 -0.000000 0.618034
v 1.618034 -0.000000 1.175571
v 1.175570 -0.000000 1.618034
v 0.989044 -0.000086 1.713074
v -0.989044 -0.000086 1.713074
v -1.175572 -0.000000 1.618034
v -1.618035 -0.000000 1.175570
v -1.902114 -0.000000 0.618033
v -2.000000 -0.000000 -0.000002
v -1.902112 -0.000000 -0.618036
v -1.618033 -0.000000 -1.175572
v -1.175568 -0.000000 -1.618035
v -0.618031 -0.000000 -1.902114
v 0.618034 0.095200 -1.902113
v -0.000000 0.095200 -2.000000
v 1.175570 0.095200 -1.618034
v 1.618034 0.095200 -1.175570
v 1.902113 0.095200 -0.618034
v 2.000000 0.095200 0.000000
v 1.902113 0.095200 0.618034
v 1.618034 0.095200 1.175571
v 1.175570 0.095200 1.618034
v 0.989044 0.095114 1.713074
v -0.989044 0.095114 1.713074
v -1.175572 0.095200 1.618034
v -1.618035 0.095200 1.175570
v -1.902114 0.095200 0.618033
v -2.000000 0.095200 -0.000002
v -1.902112 0.095200 -0.618036
v -1.618033 0.095200 -1.175572
v -1.175568 0.095200 -1.618035
v -0.618031 0.095200 -1.902114
v 0.868750 -0.000086 1.504718
vt 0.9611 0.9192
vt 0.9497 0.9177
vt 0.9506 0.9146
vt 0.9612 0.9187
vt 0.9522 0.9119
vt 0.9615 0.9182
vt 0.9543 0.9096
vt 0.9620 0.9178
vt 0.9568 0.9079
vt 0.9626 0.9175
vt 0.9595 0.9068
vt 0.9633 0.9172
vt 0.9623 0.9062
vt 0.9640 0.9171
vt 0.9651 0.9062
vt 0.9648 0.9171
vt 0.9677 0.9068
vt 0.9656 0.9172
vt 0.9677 0.9103
vt 0.9656 0.9185
vt 0.9654 0.9210
vt 0.9658 0.9302
vt 0.9649 0.9344
vt 0.9651 0.9222
vt 0.9618 0.9341
vt 0.9644 0.9221
vt 0.9588 0.9332
vt 0.9636 0.9220
vt 0.9560 0.9317
vt 0.9630 0.9217
vt 0.9535 0.9296
vt 0.9623 0.9214
vt 0.9516 0.9271
vt 0.9618 0.9209
vt 0.9502 0.9241
vt 0.9614 0.9204
vt 0.9496 0.9209
vt 0.9612 0.9198
vt 0.0000 0.0000
vt 0.0000 0.0000
vt 0.9658 0.9186
vt 0.0000 0.0000
vn 0.0000 -0.6735 -0.7392
vn 0.0000 0.6735 -0.7391
vn 0.2284 0.6735 -0.7030
vn 0.2284 -0.6735 -0.7030
vn 0.4345 0.6735 -0.5980
vn 0.4345 -0.6735 -0.5980
vn 0.5980 0.6735 -0.4345
vn 0.5980 -0.6735 -0.4345
vn 0.7030 0.6735 -0.2284
vn 0.7030 -0.6735 -0.2284
vn 0.7391 0.6735 0.0000
vn 0.7392 -0.6735 0.0000
vn 0.7030 0.6735 0.2284
vn 0.7030 -0.6735 0.2284
vn 0.5980 0.6735 0.4345
vn 0.5981 -0.6734 0.4345
vn 0.4344 0.6735 0.5980
vn 0.4348 -0.6730 0.5983
vn 0.1757 0.6578 0.7324
vn 0.1758 -0.6581 0.7320
vn -0.1758 -0.6581 0.7320
vn -0.1757 0.6578 0.7324
vn -0.4344 0.6735 0.5980
vn -0.4348 -0.6730 0.5983
vn -0.5980 0.6735 0.4345
vn -0.5981 -0.6734 0.4345
vn -0.7030 0.6735 0.2284
vn -0.7030 -0.6735 0.2284
vn -0.7391 0.6735 0.0000
vn -0.7392 -0.6735 0.0000
vn -0.7030 0.6735 -0.2284
vn -0.7030 -0.6735 -0.2284
vn -0.5980 0.6735 -0.4345
vn -0.5980 -0.6735 -0.4345
vn -0.4345 0.6735 -0.5980
vn -0.4345 -0.6735 -0.5980
vn -0.2284 0.6735 -0.7030
vn -0.2284 -0.6735 -0.7030
vn 0.0000 -1.0000 0.0000
vn 0.0000 1.0000 -0.0000
usemtl base
s 1
f 1/1/1 21/2/2 20/3/3 2/4/4
f 2/4/4 20/3/3 22/5/5 3/6/6
f 3/6/6 22/5/5 23/7/7 4/8/8
f 4/8/8 23/7/7 24/9/9 5/10/10
f 5/10/10 24/9/9 25/11/11 6/12/12
f 6/12/12 25/11/11 26/13/13 7/14/14
f 7/14/14 26/13/13 27/15/15 8/16/16
f 8/16/16 27/15/15 28/17/17 9/18/18
f 9/18/18 28/17/17 29/19/19 10/20/20
f 11/21/21 30/22/22 31/23/23 12/24/24
f 12/24/24 31/23/23 32/25/25 13/26/26
f 13/26/26 32/25/25 33/27/27 14/28/28
f 14/28/28 33/27/27 34/29/29 15/30/30
f 15/30/30 34/29/29 35/31/31 16/32/32
f 16/32/32 35/31/31 36/33/33 17/34/34
f 17/34/34 36/33/33 37/35/35 18/36/36
f 18/36/36 37/35/35 38/37/37 19/38/38
f 19/38/38 38/37/37 21/2/2 1/1/1
f 11/21/21 10/20/20 29/19/19 30/22/22
f 31/39/23 29/19/19 28/17/17
f 12/24/24 13/26/26 11/21/21
f 13/26/26 14/28/28 11/21/21
f 14/28/28 15/30/30 11/21/21
f 15/30/30 16/32/32 11/21/21
f 16/32/32 17/34/34 11/21/21
f 17/34/34 18/36/36 11/21/21
f 24/9/9 23/7/7 22/5/5
f 18/36/36 19/38/38 11/21/21
f 24/9/9 22/5/5 20/3/3
f 24/9/9 20/3/3 21/2/2
f 31/23/23 30/22/22 29/19/19
f 24/9/9 21/2/2 38/37/37
f 24/9/9 38/37/37 37/35/35
f 24/9/9 37/35/35 36/33/33
f 24/9/9 36/33/33 35/31/31
f 24/9/9 35/31/31 34/29/29
f 24/9/9 34/29/29 33/27/27
f 24/9/9 33/27/27 32/25/25
f 24/9/9 32/25/25 31/23/23
f 24/9/9 28/17/17 27/15/15
f 24/9/9 27/15/15 26/13/13
f 24/9/9 26/13/13 25/11/11
f 7/14/14 10/40/20 6/12/12
f 10/20/20 39/41/39 6/12/12
f 39/41/39 5/10/10 6/12/12
f 39/41/39 4/8/8 5/10/10
f 8/16/16 10/40/20 7/14/14
f 11/42/21 39/41/39 10/20/20
f 8/16/16 9/18/18 10/20/20
f 1/1/1 2/4/4 39/41/39
f 2/4/4 3/6/6 39/41/39
f 3/6/6 4/8/8 39/41/39
usemtl base_NONE
s off
f 24/9/40 31/23/40 28/17/40
f 1/1/39 39/41/39 11/21/39 19/38/39
