# Blender v2.78 (sub 0) OBJ File: 'tt.blend'
# www.blender.org
mtllib tt_f12.mtl
o tt_base_Cylinder.001
v -0.000000 -0.000000 -2.000000
v -0.000000 0.095200 -1.736759
v 0.618034 -0.000000 -1.902113
v 0.536688 0.095200 -1.651756
v 1.175570 -0.000000 -1.618034
v 1.020841 0.095200 -1.405067
v 1.618034 -0.000000 -1.175570
v 1.405067 0.095200 -1.020841
v 1.902113 -0.000000 -0.618034
v 1.651756 0.095200 -0.536688
v 2.000000 -0.000000 0.000000
v 1.736759 0.095200 0.000000
v 1.902113 -0.000000 0.618034
v 1.651756 0.095200 0.536688
v 1.618034 -0.000000 1.175571
v 1.405067 0.095200 1.020842
v 1.175570 -0.000000 1.618034
v 1.020841 0.095200 1.405068
v 0.989044 -0.000086 1.713074
v 0.868750 0.095114 1.504718
v -0.989044 -0.000086 1.713074
v -0.868750 0.095114 1.504718
v -1.175572 -0.000000 1.618034
v -1.020842 0.095200 1.405067
v -1.618035 -0.000000 1.175570
v -1.405069 0.095200 1.020841
v -1.902114 -0.000000 0.618033
v -1.651757 0.095200 0.536687
v -2.000000 -0.000000 -0.000002
v -1.736759 0.095200 -0.000001
v -1.902112 -0.000000 -0.618036
v -1.651756 0.095200 -0.536690
v -1.618033 -0.000000 -1.175572
v -1.405066 0.095200 -1.020843
v -1.175568 -0.000000 -1.618035
v -1.020840 0.095200 -1.405069
v -0.618031 -0.000000 -1.902114
v -0.536686 0.095200 -1.651757
v 0.618034 0.095200 -1.902113
v -0.000000 0.095200 -2.000000
v 1.175570 0.095200 -1.618034
v 1.618034 0.095200 -1.175570
v 1.902113 0.095200 -0.618034
v 2.000000 0.095200 0.000000
v 1.902113 0.095200 0.618034
v 1.618034 0.095200 1.175571
v 1.175570 0.095200 1.618034
v 0.989044 0.095114 1.713074
v -0.989044 0.095114 1.713074
v -1.175572 0.095200 1.618034
v -1.618035 0.095200 1.175570
v -1.902114 0.095200 0.618033
v -2.000000 0.095200 -0.000002
v -1.902112 0.095200 -0.618036
v -1.618033 0.095200 -1.175572
v -1.175568 0.095200 -1.618035
v -0.618031 0.095200 -1.902114
v 0.536688 0.000000 -1.651756
v -0.000000 0.000000 -1.736759
v 1.020841 0.000000 -1.405067
v 1.405067 0.000000 -1.020841
v 1.651756 0.000000 -0.536688
v 1.736759 0.000000 0.000000
v 1.651756 0.000000 0.536688
v 1.405067 0.000000 1.020842
v 1.020841 0.000000 1.405068
v 0.868750 -0.000086 1.504718
v -0.868750 -0.000086 1.504718
v -1.020842 0.000000 1.405067
v -1.405069 0.000000 1.020841
v -1.651757 0.000000 0.536687
v -1.736759 0.000000 -0.000001
v -1.651756 0.000000 -0.536690
v -1.405066 0.000000 -1.020843
v -1.020840 0.000000 -1.405069
v -0.536686 0.000000 -1.651757
vt 0.9611 0.9192
vt 0.9497 0.9177
vt 0.9506 0.9146
vt 0.9612 0.9187
vt 0.9522 0.9119
vt 0.9615 0.9182
vt 0.9543 0.9096
vt 0.9620 0.9178
vt 0.9568 0.9079
vt 0.9626 0.9175
vt 0.9595 0.9068
vt 0.9633 0.9172
vt 0.9623 0.9062
vt 0.9640 0.9171
vt 0.9651 0.9062
vt 0.9648 0.9171
vt 0.9677 0.9068
vt 0.9656 0.9172
vt 0.9677 0.9103
vt 0.9656 0.9185
vt 0.9654 0.9210
vt 0.9658 0.9302
vt 0.9649 0.9344
vt 0.9651 0.9222
vt 0.9618 0.9341
vt 0.9644 0.9221
vt 0.9588 0.9332
vt 0.9636 0.9220
vt 0.9560 0.9317
vt 0.9630 0.9217
vt 0.9535 0.9296
vt 0.9623 0.9214
vt 0.9516 0.9271
vt 0.9618 0.9209
vt 0.9502 0.9241
vt 0.9614 0.9204
vt 0.9720 0.9321
vt 0.9698 0.9330
vt 0.9668 0.9222
vt 0.9674 0.9221
vt 0.9496 0.9209
vt 0.9612 0.9198
vt 0.8890 0.9681
vt 0.9040 0.9681
vt 0.9040 0.9831
vt 0.8890 0.9831
vt 0.8890 0.9681
vt 0.9040 0.9681
vt 0.9040 0.9831
vt 0.8890 0.9831
vt 0.8890 0.9681
vt 0.9040 0.9681
vt 0.9040 0.9831
vt 0.8890 0.9831
vt 0.8890 0.9681
vt 0.9040 0.9681
vt 0.9040 0.9831
vt 0.8890 0.9831
vt 0.8890 0.9681
vt 0.9040 0.9681
vt 0.9040 0.9831
vt 0.8890 0.9831
vt 0.8890 0.9681
vt 0.9040 0.9681
vt 0.9040 0.9831
vt 0.8890 0.9831
vt 0.8890 0.9681
vt 0.9040 0.9681
vt 0.9040 0.9831
vt 0.8890 0.9831
vt 0.8890 0.9681
vt 0.9040 0.9681
vt 0.9040 0.9831
vt 0.8890 0.9831
vt 0.8890 0.9681
vt 0.9040 0.9681
vt 0.9040 0.9831
vt 0.8890 0.9831
vt 0.9683 0.9105
vt 0.9658 0.9186
vt 0.8890 0.9681
vt 0.9040 0.9681
vt 0.9040 0.9831
vt 0.8890 0.9831
vt 0.8890 0.9681
vt 0.9040 0.9681
vt 0.9040 0.9831
vt 0.8890 0.9831
vt 0.8890 0.9681
vt 0.9040 0.9681
vt 0.9040 0.9831
vt 0.8890 0.9831
vt 0.8890 0.9681
vt 0.9040 0.9681
vt 0.9040 0.9831
vt 0.8890 0.9831
vt 0.8890 0.9681
vt 0.9040 0.9681
vt 0.9040 0.9831
vt 0.8890 0.9831
vt 0.8890 0.9681
vt 0.9040 0.9681
vt 0.9040 0.9831
vt 0.8890 0.9831
vt 0.8890 0.9681
vt 0.9040 0.9681
vt 0.9040 0.9831
vt 0.8890 0.9831
vt 0.8890 0.9681
vt 0.9040 0.9681
vt 0.9040 0.9831
vt 0.8890 0.9831
vt 0.8890 0.9681
vt 0.9040 0.9681
vt 0.9040 0.9831
vt 0.8890 0.9831
vt 0.9718 0.9085
vt 0.9737 0.9095
vt 0.9679 0.9176
vt 0.9673 0.9174
vt 0.9740 0.9309
vt 0.9680 0.9220
vt 0.9699 0.9077
vt 0.9666 0.9171
vt 0.9795 0.9186
vt 0.9796 0.9209
vt 0.9696 0.9201
vt 0.9696 0.9196
vt 0.9759 0.9293
vt 0.9685 0.9217
vt 0.9790 0.9163
vt 0.9695 0.9191
vt 0.9774 0.9275
vt 0.9689 0.9214
vt 0.9781 0.9143
vt 0.9692 0.9187
vt 0.9785 0.9254
vt 0.9692 0.9210
vt 0.9657 0.9209
vt 0.9665 0.9301
vt 0.9768 0.9124
vt 0.9689 0.9183
vt 0.9793 0.9232
vt 0.9694 0.9206
vt 0.9675 0.9335
vt 0.9661 0.9223
vt 0.9754 0.9108
vt 0.9685 0.9179
vt 0.8890 0.9681
vt 0.9040 0.9681
vt 0.9040 0.9831
vt 0.8890 0.9831
vt 0.8890 0.9681
vt 0.9040 0.9681
vt 0.9040 0.9831
vt 0.8890 0.9831
vt 0.8890 0.9681
vt 0.9040 0.9681
vt 0.9040 0.9831
vt 0.8890 0.9831
vt 0.8890 0.9681
vt 0.9040 0.9681
vt 0.9040 0.9831
vt 0.8890 0.9831
vt 0.8890 0.9681
vt 0.9040 0.9681
vt 0.9040 0.9831
vt 0.8890 0.9831
vt 0.8890 0.9681
vt 0.9040 0.9681
vt 0.9040 0.9831
vt 0.8890 0.9831
vt 0.8890 0.9681
vt 0.9040 0.9681
vt 0.9040 0.9831
vt 0.8890 0.9831
vt 0.8890 0.9681
vt 0.9040 0.9681
vt 0.9040 0.9831
vt 0.8890 0.9831
vt 0.8890 0.9681
vt 0.9040 0.9681
vt 0.9040 0.9831
vt 0.8890 0.9831
vt 0.8890 0.9681
vt 0.9040 0.9681
vt 0.9040 0.9831
vt 0.8890 0.9831
vt 0.8890 0.9681
vt 0.9040 0.9681
vt 0.9040 0.9831
vt 0.8890 0.9831
vt 0.8890 0.9681
vt 0.9040 0.9681
vt 0.9040 0.9831
vt 0.8890 0.9831
vt 0.8890 0.9681
vt 0.9040 0.9681
vt 0.9040 0.9831
vt 0.8890 0.9831
vt 0.8890 0.9681
vt 0.9040 0.9681
vt 0.9040 0.9831
vt 0.8890 0.9831
vt 0.8890 0.9681
vt 0.9040 0.9681
vt 0.9040 0.9831
vt 0.8890 0.9831
vt 0.8890 0.9681
vt 0.9040 0.9681
vt 0.9040 0.9831
vt 0.8890 0.9831
vt 0.8890 0.9681
vt 0.9040 0.9681
vt 0.9040 0.9831
vt 0.8890 0.9831
vt 0.8890 0.9681
vt 0.9040 0.9681
vt 0.9040 0.9831
vt 0.8890 0.9831
vn 0.0000 -0.6735 -0.7391
vn 0.0000 0.6735 -0.7391
vn 0.2284 0.6735 -0.7030
vn 0.2284 -0.6735 -0.7030
vn 0.4345 0.6735 -0.5980
vn 0.4345 -0.6735 -0.5980
vn 0.5980 0.6735 -0.4345
vn 0.5980 -0.6735 -0.4345
vn 0.7030 0.6735 -0.2284
vn 0.7030 -0.6735 -0.2284
vn 0.7391 0.6735 0.0000
vn 0.7391 -0.6735 0.0000
vn 0.7030 0.6735 0.2284
vn 0.7030 -0.6735 0.2284
vn 0.5980 0.6735 0.4345
vn 0.5980 -0.6735 0.4345
vn 0.4343 0.6736 0.5980
vn 0.4346 -0.6735 0.5979
vn -0.2314 0.5800 0.7810
vn -0.2312 -0.5803 0.7809
vn 0.2312 -0.5803 0.7809
vn 0.2314 0.5800 0.7810
vn -0.4343 0.6736 0.5980
vn -0.4346 -0.6735 0.5979
vn -0.5980 0.6735 0.4345
vn -0.5980 -0.6735 0.4345
vn -0.7030 0.6735 0.2284
vn -0.7030 -0.6735 0.2284
vn -0.7391 0.6735 0.0000
vn -0.7391 -0.6735 0.0000
vn -0.7030 0.6735 -0.2284
vn -0.7030 -0.6735 -0.2284
vn -0.5980 0.6735 -0.4345
vn -0.5980 -0.6735 -0.4345
vn -0.4345 0.6735 -0.5980
vn -0.4345 -0.6735 -0.5980
vn 0.6354 0.7440 -0.2064
vn 0.5405 0.7440 -0.3927
vn 0.5405 -0.7440 -0.3927
vn 0.6354 -0.7440 -0.2064
vn -0.2284 0.6735 -0.7030
vn -0.2284 -0.6735 -0.7030
vn 0.0000 0.7440 0.6681
vn -0.2064 0.7440 0.6354
vn -0.3927 0.7440 0.5405
vn -0.5405 0.7440 0.3927
vn -0.6354 0.7440 0.2064
vn -0.6681 0.7440 0.0000
vn -0.6354 0.7440 -0.2064
vn -0.5405 0.7440 -0.3927
vn -0.4306 0.7309 -0.5293
vn -0.7923 0.5802 -0.1885
vn -0.7921 -0.5805 -0.1885
vn 0.7923 0.5802 -0.1885
vn 0.4306 0.7309 -0.5293
vn 0.6681 0.7440 0.0000
vn 0.6354 0.7440 0.2064
vn 0.5405 0.7440 0.3927
vn 0.3927 0.7440 0.5405
vn 0.2064 0.7440 0.6354
vn -0.6354 -0.7440 -0.2064
vn -0.5405 -0.7440 -0.3927
vn 0.6681 -0.7440 0.0000
vn -0.4304 -0.7309 -0.5296
vn 0.0000 -0.7440 0.6681
vn -0.2064 -0.7440 0.6354
vn 0.6354 -0.7440 0.2064
vn -0.3927 -0.7440 0.5405
vn 0.5405 -0.7440 0.3927
vn -0.5405 -0.7440 0.3927
vn 0.3927 -0.7440 0.5405
vn 0.7921 -0.5805 -0.1885
vn -0.6354 -0.7440 0.2064
vn 0.2064 -0.7440 0.6354
vn 0.4304 -0.7309 -0.5296
vn -0.6681 -0.7440 0.0000
usemtl base
s 1
f 1/1/1 40/2/2 39/3/3 3/4/4
f 3/4/4 39/3/3 41/5/5 5/6/6
f 5/6/6 41/5/5 42/7/7 7/8/8
f 7/8/8 42/7/7 43/9/9 9/10/10
f 9/10/10 43/9/9 44/11/11 11/12/12
f 11/12/12 44/11/11 45/13/13 13/14/14
f 13/14/14 45/13/13 46/15/15 15/16/16
f 15/16/16 46/15/15 47/17/17 17/18/18
f 17/18/18 47/17/17 48/19/19 19/20/20
f 21/21/21 49/22/22 50/23/23 23/24/24
f 23/24/24 50/23/23 51/25/25 25/26/26
f 25/26/26 51/25/25 52/27/27 27/28/28
f 27/28/28 52/27/27 53/29/29 29/30/30
f 29/30/30 53/29/29 54/31/31 31/32/32
f 31/32/32 54/31/31 55/33/33 33/34/34
f 33/34/34 55/33/33 56/35/35 35/36/36
f 28/37/37 26/38/38 70/39/39 71/40/40
f 35/36/36 56/35/35 57/41/41 37/42/42
f 37/42/42 57/41/41 40/2/2 1/1/1
f 2/43/43 4/44/44 39/45/3 40/46/2
f 4/47/44 6/48/45 41/49/5 39/50/3
f 6/51/45 8/52/46 42/53/7 41/54/5
f 8/55/46 10/56/47 43/57/9 42/58/7
f 10/59/47 12/60/48 44/61/11 43/62/9
f 12/63/48 14/64/49 45/65/13 44/66/11
f 14/67/49 16/68/50 46/69/15 45/70/13
f 16/71/50 18/72/51 47/73/17 46/74/15
f 18/75/51 20/76/52 48/77/19 47/78/17
f 48/19/19 20/79/52 67/80/53 19/20/20
f 22/81/54 24/82/55 50/83/23 49/84/22
f 24/85/55 26/86/38 51/87/25 50/88/23
f 26/89/38 28/90/37 52/91/27 51/92/25
f 28/93/37 30/94/56 53/95/29 52/96/27
f 30/97/56 32/98/57 54/99/31 53/100/29
f 32/101/57 34/102/58 55/103/33 54/104/31
f 34/105/58 36/106/59 56/107/35 55/108/33
f 36/109/59 38/110/60 57/111/41 56/112/35
f 38/113/60 2/114/43 40/115/2 57/116/41
f 16/117/50 14/118/49 64/119/61 65/120/62
f 30/121/56 28/37/37 71/40/40 72/122/63
f 18/123/51 16/117/50 65/120/62 66/124/64
f 4/125/44 2/126/43 59/127/65 58/128/66
f 32/129/57 30/121/56 72/122/63 73/130/67
f 20/79/52 18/123/51 66/124/64 67/80/53
f 6/131/45 4/125/44 58/128/66 60/132/68
f 34/133/58 32/129/57 73/130/67 74/134/69
f 8/135/46 6/131/45 60/132/68 61/136/70
f 36/137/59 34/133/58 74/134/69 75/138/71
f 49/22/22 21/21/21 68/139/72 22/140/54
f 10/141/47 8/135/46 61/136/70 62/142/73
f 38/143/60 36/137/59 75/138/71 76/144/74
f 24/145/55 22/140/54 68/139/72 69/146/75
f 12/147/48 10/141/47 62/142/73 63/148/76
f 2/126/43 38/143/60 76/144/74 59/127/65
f 26/38/38 24/145/55 69/146/75 70/39/39
f 14/118/49 12/147/48 63/148/76 64/119/61
f 17/149/18 19/150/20 67/151/53 66/152/64
f 15/153/16 17/154/18 66/155/64 65/156/62
f 13/157/14 15/158/16 65/159/62 64/160/61
f 11/161/12 13/162/14 64/163/61 63/164/76
f 9/165/10 11/166/12 63/167/76 62/168/73
f 7/169/8 9/170/10 62/171/73 61/172/70
f 5/173/6 7/174/8 61/175/70 60/176/68
f 3/177/4 5/178/6 60/179/68 58/180/66
f 1/181/1 3/182/4 58/183/66 59/184/65
f 37/185/42 1/186/1 59/187/65 76/188/74
f 35/189/36 37/190/42 76/191/74 75/192/71
f 33/193/34 35/194/36 75/195/71 74/196/69
f 31/197/32 33/198/34 74/199/69 73/200/67
f 29/201/30 31/202/32 73/203/67 72/204/63
f 27/205/28 29/206/30 72/207/63 71/208/40
f 25/209/26 27/210/28 71/211/40 70/212/39
f 23/213/24 25/214/26 70/215/39 69/216/75
f 21/217/21 23/218/24 69/219/75 68/220/72
o c_face_Plane.003
v -3.000000 0.000000 -0.000000
v 3.000000 0.000000 -0.000000
v -3.000000 6.000000 0.000000
v 3.000000 6.000000 0.000000
vt 0.0000 0.1255
vt 0.8735 0.1255
vt 0.8735 0.9990
vt 0.0000 0.9990
vn 0.0000 -0.0000 1.0000
usemtl base
s off
f 77/221/77 78/222/77 80/223/77 79/224/77
o c_back_Plane.006
v 3.000000 0.000000 -0.000001
v -3.000000 0.000000 0.000001
v 3.000000 6.000000 -0.000001
v -3.000000 6.000000 0.000001
vt 0.8735 0.1255
vt 0.0000 0.1255
vt 0.0000 0.9990
vt 0.8735 0.9990
vn -0.0000 -0.0000 -1.0000
usemtl base
s off
f 81/225/78 82/226/78 84/227/78 83/228/78
o icon_Plane.005
v -0.750000 0.011404 2.537210
v 0.750000 0.011404 2.537210
v -0.750000 0.011404 1.037210
v 0.750000 0.011404 1.037210
vt 0.9984 0.6250
vt 0.8754 0.7479
vt 0.8754 0.6250
vt 0.9984 0.7479
vn 0.0000 1.0000 0.0000
usemtl base
s off
f 86/229/79 87/230/79 85/231/79
f 86/229/79 88/232/79 87/230/79
