# Blender v2.78 (sub 0) OBJ File: 'bunkers.blend'
# www.blender.org
mtllib cf_bunker_col.mtl
o Cube
v 6.035734 -0.154899 -3.653152
v 6.035734 -0.154899 6.396177
v -6.035735 -0.154899 6.396176
v -6.035731 -0.154899 -3.653154
v 6.035737 -0.008566 -3.653150
v 6.035730 -0.008566 6.396180
v -6.035736 -0.008566 6.396175
v -6.035733 -0.008566 -3.653152
vn 0.0000 -1.0000 -0.0000
vn 0.0000 1.0000 0.0000
vn 1.0000 0.0000 0.0000
vn -0.0000 -0.0000 1.0000
vn -1.0000 -0.0000 -0.0000
vn 0.0000 0.0000 -1.0000
usemtl Material
s off
f 1//1 2//1 3//1 4//1
f 5//2 8//2 7//2 6//2
f 1//3 5//3 6//3 2//3
f 2//4 6//4 7//4 3//4
f 3//5 7//5 8//5 4//5
f 5//6 1//6 4//6 8//6
