# Blender v2.78 (sub 0) OBJ File: 'bunkers.blend'
# www.blender.org
mtllib cf_bunker_closed.mtl
o Bunker3_Group_001.002
v -6.035739 1.533059 -1.310596
v -6.602474 1.533059 -1.310596
v -6.602474 1.798856 -1.310596
v -6.035739 1.581385 -1.310596
v -4.596301 1.581385 -1.310596
v -4.596301 1.798856 -1.310596
v 6.035743 1.581385 -1.310590
v 4.596306 1.581385 -1.310590
v 4.596306 1.798856 -1.310590
v 6.602478 1.798856 -1.310590
v 6.602478 1.533059 -1.310590
v 6.035743 1.533059 -1.310590
v 6.035736 1.798856 1.244934
v 4.596306 1.798856 1.244934
v 4.596306 2.016325 1.244934
v 6.035736 2.016325 1.244934
v 5.882760 1.798856 -0.177671
v 6.602478 1.798856 1.481556
v 5.457708 1.798856 -0.382595
v 5.457708 1.798856 0.027247
v 6.035736 1.798856 1.481556
v -4.596301 1.798856 1.244928
v -4.596301 2.016325 1.244928
v -4.596301 2.016325 3.279130
v -4.596301 0.245941 3.279130
v -4.596301 -0.008565 -1.310596
v -4.596308 -0.008566 5.267512
v -4.596308 0.245941 5.148444
v -4.596308 2.016324 5.267513
v -4.596308 2.016324 5.148444
v -5.457704 1.798856 -0.382601
v -5.882755 1.798856 -0.177677
v -6.035739 1.798856 1.244928
v -6.035739 1.798856 2.191415
v -6.602474 1.798856 2.191415
v -5.457704 1.798856 0.027241
v -6.602474 1.533058 2.191415
v -6.035739 1.533058 2.191415
v 6.602478 1.533058 1.481555
v 6.035736 1.533058 1.481555
v 4.596299 -0.008566 3.824119
v 4.596306 -0.008565 -1.310590
v 3.457093 -0.008565 -2.017102
v 4.596299 -0.008566 3.824119
v -3.457088 -0.008565 -2.017102
v 4.596299 -0.008566 5.267512
v 3.457093 1.581385 -2.017102
v -3.457088 1.581385 -2.017102
v -6.035739 2.016325 1.244928
v 4.596299 0.622631 5.267512
v 4.596299 0.622631 5.267512
v 4.596299 2.016324 5.267513
v 4.596299 0.622631 3.824119
v 3.457093 -0.154897 -3.653153
v -3.457088 -0.154897 -3.653153
v -3.457088 1.581385 -3.653153
v 3.457093 1.581385 -3.653153
v 6.035743 -0.154898 -1.310590
v -6.035739 -0.154898 -1.310596
v 6.035736 -0.154899 6.396182
v -6.035746 -0.154899 6.396175
v -6.035739 0.245941 3.279124
v -5.657925 2.016325 3.279125
v -6.035739 2.016325 3.279125
v -6.035739 0.245941 5.148444
v -6.035739 2.016324 5.148444
v -5.657925 2.016324 5.148444
v 3.457093 2.016326 -3.653153
v 2.384895 2.665595 -2.343600
v 4.145195 2.739889 -0.744496
v 6.035743 2.016325 -1.310590
v -3.457088 2.016326 -3.653153
v -2.384892 2.665595 -2.343600
v -6.035739 2.016325 -1.310596
v -4.145193 2.739889 -0.744500
v 4.145190 2.702381 5.805695
v -4.145197 2.702381 5.805690
v 4.596299 0.622631 3.824119
v 5.882760 2.016325 -0.177671
v 5.457708 2.016325 0.027247
v 5.457708 2.016325 -0.382595
v -5.457704 2.016325 -0.382601
v -5.457704 2.016325 0.027241
v -5.882755 2.016325 -0.177677
v -6.035739 2.016324 5.440775
v -6.035739 2.170972 5.440775
v -6.035739 2.170972 2.861590
v -6.035739 2.016325 2.861589
v -3.457088 2.475430 -3.653153
v -6.035739 2.581748 -1.310596
v 6.035736 2.528589 6.396182
v -6.035746 2.528589 6.396176
v 3.457093 2.475430 -3.653153
v 6.035743 2.581748 -1.310590
vt 0.7717 0.7468
vt 0.7717 0.7474
vt 0.7710 0.7474
vt 0.7716 0.7468
vt 0.7716 0.7453
vt 0.7710 0.7453
vt 0.7471 0.7569
vt 0.7471 0.7554
vt 0.7477 0.7554
vt 0.7477 0.7575
vt 0.7469 0.7575
vt 0.7469 0.7569
vt 0.7490 0.7554
vt 0.7490 0.7569
vt 0.7483 0.7569
vt 0.7483 0.7554
vt 0.7456 0.7574
vt 0.7464 0.7554
vt 0.7464 0.7588
vt 0.7444 0.7588
vt 0.7452 0.7577
vt 0.7444 0.7557
vt 0.7452 0.7572
vt 0.7458 0.7557
vt 0.7458 0.7554
vt 0.7643 0.7514
vt 0.7650 0.7514
vt 0.7650 0.7539
vt 0.7598 0.7539
vt 0.7591 0.7482
vt 0.7637 0.7482
vt 0.7643 0.7482
vt 0.7591 0.7564
vt 0.7598 0.7562
vt 0.7650 0.7564
vt 0.7650 0.7562
vt 0.7734 0.7461
vt 0.7743 0.7441
vt 0.7743 0.7473
vt 0.7723 0.7473
vt 0.7730 0.7459
vt 0.7729 0.7441
vt 0.7729 0.7430
vt 0.7723 0.7430
vt 0.7734 0.7456
vt 0.7494 0.7483
vt 0.7502 0.7483
vt 0.7502 0.7526
vt 0.7494 0.7526
vt 0.7737 0.7579
vt 0.7737 0.7536
vt 0.7743 0.7536
vt 0.7743 0.7579
vt 0.7502 0.7560
vt 0.7494 0.7560
vt 0.7494 0.7526
vt 0.7502 0.7526
vt 0.7464 0.7588
vt 0.7464 0.7554
vt 0.7469 0.7554
vt 0.7469 0.7588
vt 0.7573 0.7577
vt 0.7512 0.7577
vt 0.7504 0.7565
vt 0.7573 0.7577
vt 0.7504 0.7494
vt 0.7591 0.7577
vt 0.7591 0.7482
vt 0.7512 0.7482
vt 0.7397 0.7495
vt 0.7397 0.7483
vt 0.7444 0.7483
vt 0.7444 0.7495
vt 0.7397 0.7566
vt 0.7444 0.7566
vt 0.7397 0.7577
vt 0.7444 0.7577
vt 0.7483 0.7554
vt 0.7483 0.7569
vt 0.7477 0.7569
vt 0.7477 0.7554
vt 0.7723 0.7359
vt 0.7723 0.7453
vt 0.7664 0.7453
vt 0.7704 0.7359
vt 0.7704 0.7359
vt 0.7664 0.7359
vt 0.7663 0.7482
vt 0.7709 0.7482
vt 0.7709 0.7546
vt 0.7656 0.7482
vt 0.7650 0.7514
vt 0.7691 0.7546
vt 0.7650 0.7564
vt 0.7691 0.7564
vt 0.7444 0.7554
vt 0.7444 0.7483
vt 0.7494 0.7483
vt 0.7494 0.7554
vt 0.7737 0.7482
vt 0.7737 0.7535
vt 0.7709 0.7535
vt 0.7709 0.7482
vt 0.7504 0.7535
vt 0.7504 0.7483
vt 0.7504 0.7484
vt 0.7737 0.7535
vt 0.7737 0.7587
vt 0.7709 0.7587
vt 0.7709 0.7535
vt 0.7637 0.7306
vt 0.7637 0.7359
vt 0.7637 0.7308
vt 0.7704 0.7480
vt 0.7698 0.7480
vt 0.7698 0.7472
vt 0.7704 0.7472
vt 0.7698 0.7480
vt 0.7692 0.7480
vt 0.7692 0.7472
vt 0.7698 0.7472
vt 0.7751 0.7412
vt 0.7736 0.7412
vt 0.7736 0.7359
vt 0.7747 0.7359
vt 0.7751 0.7359
vt 0.7692 0.7453
vt 0.7692 0.7476
vt 0.7678 0.7476
vt 0.7678 0.7453
vt 0.7737 0.7482
vt 0.7751 0.7482
vt 0.7751 0.7536
vt 0.7748 0.7536
vt 0.7737 0.7536
vt 0.7567 0.7359
vt 0.7581 0.7359
vt 0.7584 0.7387
vt 0.7567 0.7387
vt 0.7723 0.7430
vt 0.7723 0.7359
vt 0.7736 0.7359
vt 0.7736 0.7430
vt 0.7587 0.7359
vt 0.7600 0.7359
vt 0.7600 0.7387
vt 0.7584 0.7387
vt 0.7582 0.7482
vt 0.7504 0.7482
vt 0.7553 0.7422
vt 0.7561 0.7422
vt 0.7561 0.7419
vt 0.7567 0.7419
vt 0.7637 0.7359
vt 0.7637 0.7234
vt 0.7716 0.7234
vt 0.7716 0.7359
vt 0.7692 0.7472
vt 0.7692 0.7453
vt 0.7710 0.7453
vt 0.7710 0.7472
vt 0.7462 0.7481
vt 0.7476 0.7483
vt 0.7445 0.7483
vt 0.7445 0.7468
vt 0.7460 0.7477
vt 0.7465 0.7477
vt 0.7504 0.7456
vt 0.7397 0.7373
vt 0.7397 0.7468
vt 0.7504 0.7385
vt 0.7445 0.7373
vt 0.7504 0.7483
vt 0.7504 0.7532
vt 0.7504 0.7531
vt 0.7504 0.7508
vt 0.7664 0.7476
vt 0.7664 0.7453
vt 0.7674 0.7453
vt 0.7674 0.7476
vt 0.7465 0.7364
vt 0.7460 0.7364
vt 0.7445 0.7359
vt 0.7462 0.7360
vt 0.7476 0.7359
vt 0.7652 0.7444
vt 0.7664 0.7387
vt 0.7664 0.7482
vt 0.7652 0.7467
vt 0.7600 0.7467
vt 0.7600 0.7471
vt 0.7596 0.7471
vt 0.7585 0.7482
vt 0.7596 0.7439
vt 0.7600 0.7419
vt 0.7607 0.7431
vt 0.7607 0.7419
vt 0.7600 0.7439
vt 0.7600 0.7444
vt 0.7744 0.7344
vt 0.7744 0.7359
vt 0.7716 0.7332
vt 0.7735 0.7332
vt 0.7735 0.7261
vt 0.7716 0.7261
vt 0.7744 0.7234
vt 0.7744 0.7249
vt 0.7704 0.7479
vt 0.7704 0.7472
vt 0.7709 0.7472
vt 0.7709 0.7479
vt 0.7718 0.7482
vt 0.7714 0.7482
vt 0.7714 0.7476
vt 0.7718 0.7476
vt 0.7499 0.7567
vt 0.7494 0.7567
vt 0.7494 0.7560
vt 0.7499 0.7560
vt 0.7503 0.7567
vt 0.7499 0.7567
vt 0.7499 0.7560
vt 0.7503 0.7560
vt 0.7494 0.7561
vt 0.7490 0.7561
vt 0.7490 0.7554
vt 0.7494 0.7554
vt 0.7714 0.7476
vt 0.7714 0.7482
vt 0.7709 0.7482
vt 0.7709 0.7476
vt 0.7678 0.7453
vt 0.7678 0.7476
vt 0.7504 0.7387
vt 0.7553 0.7387
vt 0.7397 0.7359
vt 0.7489 0.7234
vt 0.7489 0.7359
vt 0.7630 0.7254
vt 0.7552 0.7339
vt 0.7552 0.7254
vt 0.7533 0.7272
vt 0.7517 0.7261
vt 0.7545 0.7234
vt 0.7630 0.7339
vt 0.7637 0.7234
vt 0.7637 0.7359
vt 0.7533 0.7321
vt 0.7545 0.7359
vt 0.7517 0.7332
vt 0.7517 0.7332
vt 0.7517 0.7261
vt 0.7397 0.7234
vt 0.7656 0.7514
vt 0.7614 0.7431
vt 0.7614 0.7387
vn 0.0000 0.0000 -1.0000
vn -0.0000 1.0000 0.0000
vn 1.0000 0.0000 0.0000
vn -1.0000 0.0000 0.0000
vn 0.0000 -1.0000 -0.0000
vn -0.5270 -0.0000 0.8498
vn 0.0000 -0.0000 1.0000
vn 0.5270 -0.0000 0.8498
vn 0.6724 0.0000 -0.7402
vn 0.6722 0.0000 -0.7403
vn 0.6723 0.0000 -0.7403
vn 0.7362 0.0000 -0.6767
vn -0.6724 -0.0000 -0.7402
vn -0.6723 -0.0000 -0.7403
vn -0.6722 -0.0000 -0.7403
vn -0.7362 -0.0000 -0.6767
vn -0.0031 -1.0000 -0.0006
vn -0.0024 -1.0000 0.0000
vn -0.5318 0.0000 -0.8468
vn -0.5319 -0.0000 0.8468
vn 0.5318 -0.0000 -0.8468
vn 0.5319 -0.0000 0.8468
vn -0.0000 1.0000 0.0057
vn 0.0000 0.9999 -0.0109
vn -0.0686 0.9963 -0.0516
vn -0.0217 0.9917 -0.1265
vn -0.0327 0.9925 -0.1179
vn -0.0716 0.9965 -0.0424
vn 0.0352 0.9841 0.1741
vn -0.0352 0.9841 0.1741
vn -0.0705 0.9956 0.0616
vn 0.0705 0.9956 0.0616
vn 0.0217 0.9917 -0.1265
vn 0.0686 0.9963 -0.0516
vn 0.0716 0.9965 -0.0424
vn 0.0327 0.9925 -0.1179
vn 0.0000 0.9989 -0.0464
vn 0.7363 0.4785 -0.4785
usemtl sov_tex
s 1
f 1/1/1 2/2/1 3/3/1 4/4/1
f 5/5/1 4/4/1 3/3/1 6/6/1
f 7/7/1 8/8/1 9/9/1 10/10/1
f 7/7/1 10/10/1 11/11/1 12/12/1
f 13/13/1 14/14/1 15/15/1 16/16/1
f 17/17/2 18/18/2 10/19/2 9/20/2
f 19/21/2 17/17/2 9/20/2 14/22/2
f 20/23/2 19/21/2 14/22/2 17/17/2
f 17/17/2 14/22/2 13/24/2 18/18/2
f 21/25/2 18/18/2 13/24/2
f 22/26/3 23/27/3 24/28/3 25/29/3
f 22/26/3 25/29/3 26/30/3 5/31/3
f 22/26/3 5/31/3 6/32/3
f 27/33/3 26/30/3 25/29/3 28/34/3
f 29/35/3 27/33/3 28/34/3 30/36/3
f 31/37/2 22/38/2 6/39/2 3/40/2
f 32/41/2 31/37/2 3/40/2 33/42/2
f 34/43/2 33/42/2 3/40/2 35/44/2
f 36/45/2 32/41/2 33/42/2 22/38/2
f 36/45/2 22/38/2 31/37/2
f 3/46/4 2/47/4 37/48/4 35/49/4
f 1/50/5 38/51/5 37/52/5 2/53/5
f 11/54/3 10/55/3 18/56/3 39/57/3
f 11/58/5 39/59/5 40/60/5 12/61/5
f 41/62/2 42/63/2 43/64/2 44/65/2
f 44/65/2 43/64/2 45/66/2 46/67/2
f 27/68/2 46/67/2 45/66/2 26/69/2
f 43/70/6 42/71/6 8/72/6 47/73/6
f 45/74/7 43/70/7 47/73/7 48/75/7
f 26/76/8 45/74/8 48/75/8 5/77/8
f 22/78/1 33/79/1 49/80/1 23/81/1
f 46/82/1 27/83/1 29/84/1 50/85/1
f 51/86/1 50/85/1 29/84/1 52/87/1
f 8/88/4 42/89/4 41/90/4 9/91/4
f 15/92/4 41/90/4 53/93/4 52/94/4
f 52/94/4 53/93/4 51/95/4
f 54/96/1 55/97/1 56/98/1 57/99/1
f 54/100/9 57/101/9 7/102/10 58/103/11
f 58/104/11 7/105/10 12/106/12
f 56/107/13 55/108/13 59/109/14 4/110/15
f 4/111/15 59/112/14 1/113/16
f 37/114/7 38/115/7 34/116/7 35/117/7
f 40/118/7 39/119/7 18/120/7 21/121/7
f 62/122/7 25/123/7 24/124/7 63/125/7
f 62/122/7 63/125/7 64/126/7
f 28/127/2 25/128/2 62/129/2 65/130/2
f 28/131/1 65/132/1 66/133/1 67/134/1
f 30/135/1 28/131/1 67/134/1
f 68/136/9 93/137/9 94/138/9 71/139/9
f 68/140/1 72/141/1 89/142/1 93/143/1
f 89/144/13 72/145/13 74/146/13 90/147/13
f 91/148/3 60/149/3 40/150/3 21/151/3
f 91/148/3 21/151/3 13/152/3 16/153/3
f 91/148/3 16/153/3 71/139/3 94/138/3
f 61/154/7 60/155/7 91/156/7 92/157/7
f 78/158/4 44/159/4 46/160/4 50/161/4
f 79/162/5 71/163/5 16/164/5 15/165/5
f 80/166/5 79/162/5 15/165/5 81/167/5
f 81/167/5 15/165/5 68/168/5 79/162/5
f 79/162/5 68/168/5 71/163/5
f 29/169/5 68/168/5 15/165/5 52/170/5
f 72/171/5 68/168/5 29/169/5 23/172/5
f 23/173/5 29/174/5 30/175/17 24/176/18
f 24/177/18 30/178/17 67/179/5 63/180/5
f 82/181/5 72/171/5 23/172/5 83/182/5
f 83/182/5 23/172/5 49/183/5 84/184/5
f 84/184/5 49/183/5 74/185/5 82/181/5
f 72/171/5 82/181/5 74/185/5
f 62/186/4 59/187/4 61/188/4 65/189/4
f 66/190/4 65/189/4 61/188/4 85/191/4
f 86/192/4 85/191/4 61/188/4 92/193/4
f 87/194/4 86/192/4 92/193/4 49/195/4
f 49/195/4 92/193/4 90/147/4 74/146/4
f 34/196/4 87/194/4 49/195/4 33/197/4
f 88/198/4 87/194/4 34/196/4 62/186/4
f 64/199/4 88/198/4 62/186/4
f 8/200/2 7/201/2 57/202/2 47/203/2
f 48/204/2 47/203/2 57/202/2 56/205/2
f 48/204/2 56/205/2 4/206/2 5/207/2
f 81/208/19 19/209/19 20/210/20 80/211/20
f 20/212/20 17/213/3 79/214/3 80/215/20
f 17/216/3 19/217/19 81/218/19 79/219/3
f 31/220/21 32/221/4 84/222/4 82/223/21
f 32/224/4 36/225/22 83/226/22 84/227/4
f 31/228/21 82/229/21 83/230/22 36/231/22
f 87/194/4 88/198/4 64/199/4 86/192/4
f 86/192/4 64/199/4 66/190/4 85/191/4
f 63/180/5 67/179/5 66/232/5 64/233/5
f 58/234/3 12/235/3 40/150/3
f 58/234/3 40/150/3 60/149/3
f 60/236/5 59/237/5 58/238/5
f 77/239/23 70/240/24 75/241/24
f 75/241/25 73/242/26 89/243/27 90/244/28
f 76/245/29 77/239/30 92/246/31 91/247/32
f 69/248/33 70/240/34 94/249/35 93/250/36
f 73/242/26 69/248/33 93/250/36 89/243/27
f 77/239/30 75/241/25 90/244/28 92/246/31
f 70/240/34 76/245/29 91/247/32 94/249/35
f 73/242/37 75/241/24 70/240/24
f 77/239/23 76/245/23 70/240/24
f 70/240/24 69/248/37 73/242/37
f 54/251/5 58/238/5 55/252/5
f 60/236/5 61/253/5 59/237/5
f 59/237/5 55/252/5 58/238/5
f 15/92/4 14/254/4 41/90/4
f 41/90/4 14/254/4 9/91/4
f 38/255/4 59/187/4 62/186/4
f 62/186/4 34/196/4 38/255/4
f 38/255/4 1/256/38 59/187/4
