# Blender v2.78 (sub 0) OBJ File: ''
# www.blender.org
mtllib tt_token.mtl
o Plane_Plane.000
v -0.462957 1.283193 -0.000006
v 0.462928 1.283193 -0.000006
v 0.462928 -0.039499 -0.000006
v -0.462957 -0.039499 -0.000006
v -0.462957 1.283193 -0.000006
v -0.462957 -0.039499 -0.000006
v 0.462928 -0.039499 -0.000006
v 0.462928 1.283193 -0.000006
vt 0.6999 0.9999
vt 0.0000 0.9999
vt 0.0000 0.0000
vt 0.6999 0.0000
vt 0.6999 0.9999
vt 0.6999 0.0000
vt 0.0000 0.0000
vt 0.0000 0.9999
vn 0.0000 0.0000 -1.0000
vn 0.0000 -0.0000 1.0000
usemtl None
s 1
f 1/1/1 2/2/1 3/3/1 4/4/1
f 5/5/2 6/6/2 7/7/2 8/8/2
