# Blender v2.79 (sub 0) OBJ File: 'tt2.blend'
# www.blender.org
mtllib tt_black4.mtl
o tt_base_Cylinder.001
v 0.000000 -0.000000 -1.000000
v -0.000000 0.047600 -0.868380
v 0.309017 -0.000000 -0.951057
v 0.268344 0.047600 -0.825878
v 0.587785 -0.000000 -0.809017
v 0.510421 0.047600 -0.702534
v 0.809017 -0.000000 -0.587785
v 0.702534 0.047600 -0.510421
v 0.951057 -0.000000 -0.309017
v 0.825878 0.047600 -0.268344
v 1.000000 -0.000000 0.000000
v 0.868380 0.047600 0.000000
v 0.951056 -0.000000 0.309017
v 0.825878 0.047600 0.268344
v 0.809017 -0.000000 0.587785
v 0.702534 0.047600 0.510421
v 0.587785 -0.000000 0.809017
v 0.510421 0.047600 0.702534
v 0.494522 -0.000043 0.856537
v 0.434375 0.047557 0.752359
v -0.494522 -0.000043 0.856537
v -0.434375 0.047557 0.752359
v -0.587786 -0.000000 0.809017
v -0.510421 0.047600 0.702533
v -0.809017 -0.000000 0.587785
v -0.702534 0.047600 0.510420
v -0.951057 -0.000000 0.309016
v -0.825878 0.047600 0.268343
v -1.000000 -0.000000 -0.000001
v -0.868379 0.047600 -0.000001
v -0.951056 -0.000000 -0.309018
v -0.825878 0.047600 -0.268345
v -0.809016 -0.000000 -0.587786
v -0.702533 0.047600 -0.510422
v -0.587784 -0.000000 -0.809018
v -0.510420 0.047600 -0.702534
v -0.309016 -0.000000 -0.951057
v -0.268343 0.047600 -0.825878
v 0.309017 0.047600 -0.951057
v 0.000000 0.047600 -1.000000
v 0.587785 0.047600 -0.809017
v 0.809017 0.047600 -0.587785
v 0.951057 0.047600 -0.309017
v 1.000000 0.047600 0.000000
v 0.951056 0.047600 0.309017
v 0.809017 0.047600 0.587785
v 0.587785 0.047600 0.809017
v 0.494522 0.047557 0.856537
v -0.494522 0.047557 0.856537
v -0.587786 0.047600 0.809017
v -0.809017 0.047600 0.587785
v -0.951057 0.047600 0.309016
v -1.000000 0.047600 -0.000001
v -0.951056 0.047600 -0.309018
v -0.809016 0.047600 -0.587786
v -0.587784 0.047600 -0.809018
v -0.309016 0.047600 -0.951057
v 0.268344 0.000000 -0.825878
v -0.000000 0.000000 -0.868380
v 0.510421 0.000000 -0.702534
v 0.702534 0.000000 -0.510421
v 0.825878 0.000000 -0.268344
v 0.868380 0.000000 0.000000
v 0.825878 0.000000 0.268344
v 0.702534 0.000000 0.510421
v 0.510421 0.000000 0.702534
v 0.434375 -0.000043 0.752359
v -0.434375 -0.000043 0.752359
v -0.510421 0.000000 0.702533
v -0.702534 0.000000 0.510420
v -0.825878 0.000000 0.268343
v -0.868379 0.000000 -0.000001
v -0.825878 0.000000 -0.268345
v -0.702533 0.000000 -0.510422
v -0.510420 0.000000 -0.702534
v -0.268343 0.000000 -0.825878
vt 0.961106 0.919248
vt 0.949747 0.917686
vt 0.950634 0.914623
vt 0.961223 0.918685
vt 0.952188 0.911891
vt 0.961520 0.918181
vt 0.954285 0.909625
vt 0.961989 0.917768
vt 0.956781 0.907906
vt 0.962620 0.917458
vt 0.959454 0.906792
vt 0.963298 0.917246
vt 0.962269 0.906236
vt 0.964018 0.917127
vt 0.965061 0.906236
vt 0.964776 0.917120
vt 0.967737 0.906753
vt 0.965585 0.917199
vt 0.967684 0.910321
vt 0.965562 0.918454
vt 0.965377 0.920972
vt 0.965754 0.930160
vt 0.964912 0.934379
vt 0.965137 0.922183
vt 0.961806 0.934101
vt 0.964351 0.922114
vt 0.958778 0.933205
vt 0.963623 0.921967
vt 0.956006 0.931723
vt 0.962951 0.921719
vt 0.953524 0.929638
vt 0.962284 0.921390
vt 0.951553 0.927051
vt 0.961755 0.920943
vt 0.950218 0.924086
vt 0.961378 0.920412
vt 0.972026 0.932091
vt 0.969831 0.932968
vt 0.966793 0.922243
vt 0.967419 0.922127
vt 0.949603 0.920904
vt 0.961162 0.919833
vt 0.888984 0.968086
vt 0.903984 0.968086
vt 0.903984 0.983086
vt 0.888984 0.983086
vt 0.888984 0.968086
vt 0.903984 0.968086
vt 0.903984 0.983086
vt 0.888984 0.983086
vt 0.888984 0.968086
vt 0.903984 0.968086
vt 0.903984 0.983086
vt 0.888984 0.983086
vt 0.888984 0.968086
vt 0.903984 0.968086
vt 0.903984 0.983086
vt 0.888984 0.983086
vt 0.888984 0.968086
vt 0.903984 0.968086
vt 0.903984 0.983086
vt 0.888984 0.983086
vt 0.888984 0.968086
vt 0.903984 0.968086
vt 0.903984 0.983086
vt 0.888984 0.983086
vt 0.888984 0.968086
vt 0.903984 0.968086
vt 0.903984 0.983086
vt 0.888984 0.983086
vt 0.888984 0.968086
vt 0.903984 0.968086
vt 0.903984 0.983086
vt 0.888984 0.983086
vt 0.888984 0.968086
vt 0.903984 0.968086
vt 0.903984 0.983086
vt 0.888984 0.983086
vt 0.968332 0.910502
vt 0.965829 0.918590
vt 0.888984 0.968086
vt 0.903984 0.968086
vt 0.903984 0.983086
vt 0.888984 0.983086
vt 0.888984 0.968086
vt 0.903984 0.968086
vt 0.903984 0.983086
vt 0.888984 0.983086
vt 0.888984 0.968086
vt 0.903984 0.968086
vt 0.903984 0.983086
vt 0.888984 0.983086
vt 0.888984 0.968086
vt 0.903984 0.968086
vt 0.903984 0.983086
vt 0.888984 0.983086
vt 0.888984 0.968086
vt 0.903984 0.968086
vt 0.903984 0.983086
vt 0.888984 0.983086
vt 0.888984 0.968086
vt 0.903984 0.968086
vt 0.903984 0.983086
vt 0.888984 0.983086
vt 0.888984 0.968086
vt 0.903984 0.968086
vt 0.903984 0.983086
vt 0.888984 0.983086
vt 0.888984 0.968086
vt 0.903984 0.968086
vt 0.903984 0.983086
vt 0.888984 0.983086
vt 0.888984 0.968086
vt 0.903984 0.968086
vt 0.903984 0.983086
vt 0.888984 0.983086
vt 0.971807 0.908471
vt 0.973653 0.909491
vt 0.967926 0.917628
vt 0.967293 0.917372
vt 0.974038 0.930886
vt 0.967976 0.921965
vt 0.969858 0.907740
vt 0.966584 0.917111
vt 0.979494 0.918562
vt 0.979597 0.920875
vt 0.969557 0.920108
vt 0.969565 0.919617
vt 0.975855 0.929334
vt 0.968477 0.921746
vt 0.978977 0.916330
vt 0.969462 0.919133
vt 0.977367 0.927493
vt 0.968894 0.921427
vt 0.978079 0.914254
vt 0.969244 0.918676
vt 0.978519 0.925422
vt 0.969217 0.921033
vt 0.965697 0.920881
vt 0.966489 0.930111
vt 0.976850 0.912397
vt 0.968913 0.918265
vt 0.979270 0.923190
vt 0.969440 0.920587
vt 0.967532 0.933499
vt 0.966094 0.922340
vt 0.975352 0.910801
vt 0.968470 0.917916
vt 0.888984 0.968086
vt 0.903984 0.968086
vt 0.903984 0.983086
vt 0.888984 0.983086
vt 0.888984 0.968086
vt 0.903984 0.968086
vt 0.903984 0.983086
vt 0.888984 0.983086
vt 0.888984 0.968086
vt 0.903984 0.968086
vt 0.903984 0.983086
vt 0.888984 0.983086
vt 0.888984 0.968086
vt 0.903984 0.968086
vt 0.903984 0.983086
vt 0.888984 0.983086
vt 0.888984 0.968086
vt 0.903984 0.968086
vt 0.903984 0.983086
vt 0.888984 0.983086
vt 0.888984 0.968086
vt 0.903984 0.968086
vt 0.903984 0.983086
vt 0.888984 0.983086
vt 0.888984 0.968086
vt 0.903984 0.968086
vt 0.903984 0.983086
vt 0.888984 0.983086
vt 0.888984 0.968086
vt 0.903984 0.968086
vt 0.903984 0.983086
vt 0.888984 0.983086
vt 0.888984 0.968086
vt 0.903984 0.968086
vt 0.903984 0.983086
vt 0.888984 0.983086
vt 0.888984 0.968086
vt 0.903984 0.968086
vt 0.903984 0.983086
vt 0.888984 0.983086
vt 0.888984 0.968086
vt 0.903984 0.968086
vt 0.903984 0.983086
vt 0.888984 0.983086
vt 0.888984 0.968086
vt 0.903984 0.968086
vt 0.903984 0.983086
vt 0.888984 0.983086
vt 0.888984 0.968086
vt 0.903984 0.968086
vt 0.903984 0.983086
vt 0.888984 0.983086
vt 0.888984 0.968086
vt 0.903984 0.968086
vt 0.903984 0.983086
vt 0.888984 0.983086
vt 0.888984 0.968086
vt 0.903984 0.968086
vt 0.903984 0.983086
vt 0.888984 0.983086
vt 0.888984 0.968086
vt 0.903984 0.968086
vt 0.903984 0.983086
vt 0.888984 0.983086
vt 0.888984 0.968086
vt 0.903984 0.968086
vt 0.903984 0.983086
vt 0.888984 0.983086
vt 0.888984 0.968086
vt 0.903984 0.968086
vt 0.903984 0.983086
vt 0.888984 0.983086
vn 0.1564 0.0000 -0.9877
vn 0.4540 0.0000 -0.8910
vn 0.7071 0.0000 -0.7071
vn 0.8910 0.0000 -0.4540
vn 0.9877 0.0000 -0.1564
vn 0.9877 0.0000 0.1564
vn 0.8910 0.0000 0.4540
vn 0.7071 0.0000 0.7071
vn 0.4540 0.0000 0.8910
vn -0.4540 0.0000 0.8910
vn -0.7071 0.0000 0.7071
vn -0.8910 0.0000 0.4540
vn -0.9877 0.0000 0.1564
vn -0.9877 0.0000 -0.1564
vn -0.8910 0.0000 -0.4540
vn -0.7071 0.0000 -0.7071
vn -0.4540 0.0000 -0.8910
vn -0.1564 0.0000 -0.9877
vn 0.0000 1.0000 0.0000
vn -0.0004 1.0000 0.0002
vn -0.8660 0.0000 0.5000
vn 0.0004 1.0000 0.0002
vn -0.1564 0.0000 0.9877
vn -0.5480 0.0000 -0.8365
vn 0.8660 0.0000 0.5000
vn 0.5480 0.0000 -0.8365
vn 0.1564 0.0000 0.9877
vn 0.0004 -1.0000 -0.0002
vn -0.0000 -1.0000 -0.0000
vn -0.0004 -1.0000 -0.0002
usemtl base
s off
f 1/1/1 40/2/1 39/3/1 3/4/1
f 3/4/2 39/3/2 41/5/2 5/6/2
f 5/6/3 41/5/3 42/7/3 7/8/3
f 7/8/4 42/7/4 43/9/4 9/10/4
f 9/10/5 43/9/5 44/11/5 11/12/5
f 11/12/6 44/11/6 45/13/6 13/14/6
f 13/14/7 45/13/7 46/15/7 15/16/7
f 15/16/8 46/15/8 47/17/8 17/18/8
f 17/18/9 47/17/9 48/19/9 19/20/9
f 21/21/10 49/22/10 50/23/10 23/24/10
f 23/24/11 50/23/11 51/25/11 25/26/11
f 25/26/12 51/25/12 52/27/12 27/28/12
f 27/28/13 52/27/13 53/29/13 29/30/13
f 29/30/14 53/29/14 54/31/14 31/32/14
f 31/32/15 54/31/15 55/33/15 33/34/15
f 33/34/16 55/33/16 56/35/16 35/36/16
f 28/37/4 26/38/4 70/39/4 71/40/4
f 35/36/17 56/35/17 57/41/17 37/42/17
f 37/42/18 57/41/18 40/2/18 1/1/18
f 2/43/19 4/44/19 39/45/19 40/46/19
f 4/47/19 6/48/19 41/49/19 39/50/19
f 6/51/19 8/52/19 42/53/19 41/54/19
f 8/55/19 10/56/19 43/57/19 42/58/19
f 10/59/19 12/60/19 44/61/19 43/62/19
f 12/63/19 14/64/19 45/65/19 44/66/19
f 14/67/19 16/68/19 46/69/19 45/70/19
f 16/71/19 18/72/19 47/73/19 46/74/19
f 18/75/20 20/76/20 48/77/20 47/78/20
f 48/19/21 20/79/21 67/80/21 19/20/21
f 22/81/22 24/82/22 50/83/22 49/84/22
f 24/85/19 26/86/19 51/87/19 50/88/19
f 26/89/19 28/90/19 52/91/19 51/92/19
f 28/93/19 30/94/19 53/95/19 52/96/19
f 30/97/19 32/98/19 54/99/19 53/100/19
f 32/101/19 34/102/19 55/103/19 54/104/19
f 34/105/19 36/106/19 56/107/19 55/108/19
f 36/109/19 38/110/19 57/111/19 56/112/19
f 38/113/19 2/114/19 40/115/19 57/116/19
f 16/117/15 14/118/15 64/119/15 65/120/15
f 30/121/5 28/37/5 71/40/5 72/122/5
f 18/123/16 16/117/16 65/120/16 66/124/16
f 4/125/23 2/126/23 59/127/23 58/128/23
f 32/129/6 30/121/6 72/122/6 73/130/6
f 20/79/24 18/123/24 66/124/24 67/80/24
f 6/131/10 4/125/10 58/128/10 60/132/10
f 34/133/7 32/129/7 73/130/7 74/134/7
f 8/135/11 6/131/11 60/132/11 61/136/11
f 36/137/8 34/133/8 74/134/8 75/138/8
f 49/22/25 21/21/25 68/139/25 22/140/25
f 10/141/12 8/135/12 61/136/12 62/142/12
f 38/143/9 36/137/9 75/138/9 76/144/9
f 24/145/26 22/140/26 68/139/26 69/146/26
f 12/147/13 10/141/13 62/142/13 63/148/13
f 2/126/27 38/143/27 76/144/27 59/127/27
f 26/38/3 24/145/3 69/146/3 70/39/3
f 14/118/14 12/147/14 63/148/14 64/119/14
f 17/149/28 19/150/28 67/151/28 66/152/28
f 15/153/29 17/154/29 66/155/29 65/156/29
f 13/157/29 15/158/29 65/159/29 64/160/29
f 11/161/29 13/162/29 64/163/29 63/164/29
f 9/165/29 11/166/29 63/167/29 62/168/29
f 7/169/29 9/170/29 62/171/29 61/172/29
f 5/173/29 7/174/29 61/175/29 60/176/29
f 3/177/29 5/178/29 60/179/29 58/180/29
f 1/181/29 3/182/29 58/183/29 59/184/29
f 37/185/29 1/186/29 59/187/29 76/188/29
f 35/189/29 37/190/29 76/191/29 75/192/29
f 33/193/29 35/194/29 75/195/29 74/196/29
f 31/197/29 33/198/29 74/199/29 73/200/29
f 29/201/29 31/202/29 73/203/29 72/204/29
f 27/205/29 29/206/29 72/207/29 71/208/29
f 25/209/29 27/210/29 71/211/29 70/212/29
f 23/213/29 25/214/29 70/215/29 69/216/29
f 21/217/30 23/218/30 69/219/30 68/220/30
o icon_Plane.005
v -0.375000 0.005702 1.268605
v 0.375000 0.005702 1.268605
v -0.375000 0.005702 0.518605
v 0.375000 0.005702 0.518605
vt 0.998371 0.749955
vt 0.875435 0.872891
vt 0.875435 0.749955
vt 0.998371 0.872891
vn 0.0000 1.0000 0.0000
usemtl base
s off
f 78/221/31 79/222/31 77/223/31
f 78/221/31 80/224/31 79/222/31
o c_face_Plane.003
v -3.000000 0.000000 -0.000000
v 3.000000 0.000000 -0.000000
v -3.000000 6.000000 0.000000
v 3.000000 6.000000 0.000000
vt 0.000005 0.125493
vt 0.873530 0.125493
vt 0.873530 0.999018
vt 0.000005 0.999018
vn 0.0000 -0.0000 1.0000
usemtl base
s off
f 81/225/32 82/226/32 84/227/32 83/228/32
o c_back_Plane.006
v 3.000000 0.000000 -0.000001
v -3.000000 0.000000 0.000001
v 3.000000 6.000000 -0.000001
v -3.000000 6.000000 0.000001
vt 0.873530 0.125493
vt 0.000005 0.125493
vt 0.000005 0.999018
vt 0.873530 0.999018
vn -0.0000 -0.0000 -1.0000
usemtl base.003
s off
f 85/229/33 86/230/33 88/231/33 87/232/33
