# This file uses centimeters as units for non-parametric coordinates.

mtllib Road_01.mtl
g default
v 2.442896 -0.100043 6.000000
v 2.442896 -0.100043 -6.000000
v 2.000000 0.100043 6.000000
v 2.000000 0.100043 -6.000000
v -2.000000 0.100043 6.000000
v -2.000000 0.100043 -6.000000
v -2.503250 -0.100043 6.000000
v -2.503250 -0.100043 -6.000000
v 1.561081 0.080815 -6.000001
v 1.561081 0.080815 6.000000
v 1.561081 -0.100043 6.000000
v 1.561081 -0.100043 -6.000000
v -1.549375 0.080815 -6.000000
v -1.549375 0.080815 6.000000
v -1.549375 -0.100043 6.000000
v -1.549375 -0.100043 -6.000000
v 1.561081 0.080815 3.000000
v -1.549375 0.080815 3.000000
v -2.000000 0.100043 3.000000
v -2.618108 -0.100043 3.000000
v -1.549375 -0.100043 3.000000
v 1.561081 -0.100043 3.000000
v 2.442896 -0.100043 3.000000
v 2.000000 0.150110 3.000000
v 2.000000 0.100043 -0.000000
v 1.561081 0.080815 -0.000000
v -1.549375 0.080815 -0.000000
v -2.000000 0.072145 -0.000000
v -2.371181 -0.100043 -0.000000
v -1.549375 -0.100043 -0.000000
v 1.561081 -0.100043 -0.000000
v 2.285172 -0.100043 -0.000000
v 2.000000 0.168524 -3.000001
v 1.561081 0.080815 -3.000001
v -1.549375 0.080815 -3.000001
v -2.000000 0.100043 -3.000001
v -2.447536 -0.100043 -3.000001
v -1.549375 -0.100043 -3.000001
v 1.561081 -0.100043 -3.000001
v 2.285172 -0.100043 -3.000001
vt 0.000000 0.003754
vt 0.246793 0.003754
vt 0.246793 0.085692
vt 0.000000 0.085692
vt 0.500000 0.003754
vt 0.500000 0.085692
vt 0.729252 0.003754
vt 0.729252 0.085692
vt 0.246793 0.180699
vt 0.000000 0.180699
vt 1.000000 0.003754
vt 1.000000 0.085692
vt 0.500000 0.180699
vt 0.246793 0.804841
vt 0.000000 0.804841
vt 0.729252 0.180699
vt 0.500000 0.804842
vt 1.000000 0.180699
vt 0.729252 0.804841
vt 0.246793 0.902197
vt 0.000000 0.902197
vt 1.000000 0.804841
vt 0.500000 0.902197
vt 0.246793 0.996246
vt 0.000000 0.996246
vt 0.729252 0.902197
vt 0.500000 0.996246
vt 1.000000 0.902197
vt 0.729252 0.996246
vt 1.000000 0.996246
vt 0.014290 -0.779478
vt -0.224794 -0.779478
vt 0.265788 -0.779478
vt 0.014290 -0.699573
vt -0.224794 -0.699573
vt 0.516876 -0.779478
vt 0.265788 -0.699573
vt 0.014290 -0.439014
vt -0.224794 -0.439014
vt 0.771221 -0.779478
vt 0.516876 -0.699573
vt 0.265788 -0.439014
vt 0.771222 -0.699573
vt 0.516876 -0.439014
vt 0.014290 -0.365145
vt -0.224794 -0.365145
vt 0.771221 -0.439014
vt 0.265787 -0.365145
vt 0.516876 -0.365145
vt 0.771222 -0.365145
vt 0.771221 -0.358999
vt 0.731959 -0.342238
vt 0.691316 -0.352400
vt 0.691316 -0.358999
vt 0.430758 -0.352400
vt 0.430758 -0.358999
vt 0.391095 -0.342238
vt 0.356889 -0.358999
vt 0.356889 -0.335738
vt 0.396151 -0.318977
vt 0.436794 -0.335738
vt 0.436794 -0.329139
vt 0.697353 -0.335738
vt 0.697353 -0.329139
vt 0.771221 -0.335738
vt 0.737015 -0.318977
vn 0.453103 0.891427 0.007438
vn 0.489949 0.871725 -0.006747
vn 0.489949 0.871725 -0.006747
vn 0.453103 0.891427 0.007438
vn -0.050229 0.998738 -0.000000
vn -0.050228 0.998729 0.004156
vn -0.100329 0.994920 0.008302
vn -0.100332 0.994954 -0.000000
vn 0.013588 0.999907 -0.001163
vn 0.027175 0.999628 -0.002325
vn 0.042630 0.999091 -0.000000
vn 0.021320 0.999773 -0.000000
vn -0.336095 0.941806 0.006434
vn -0.344153 0.938893 -0.006205
vn -0.344153 0.938893 -0.006205
vn -0.336095 0.941806 0.006434
vn 0.000000 -1.000000 -0.000000
vn 0.000000 -1.000000 -0.000000
vn 0.000000 -1.000000 -0.000000
vn 0.000000 -1.000000 -0.000000
vn 0.000000 -0.000000 -1.000000
vn 0.000001 -0.000000 -1.000000
vn 0.000001 -0.000000 -1.000000
vn 0.000000 -0.000000 -1.000000
vn -0.000000 0.000000 1.000000
vn -0.000000 0.000000 1.000000
vn -0.000000 -0.000001 1.000000
vn -0.000000 -0.000001 1.000000
vn 0.000000 -0.000001 1.000000
vn 0.000000 -0.000001 1.000000
vn 0.000000 -0.000001 1.000000
vn 0.000000 -0.000001 1.000000
vn 0.000000 -1.000000 -0.000000
vn 0.000000 -1.000000 -0.000000
vn -0.000000 -0.000002 -1.000000
vn -0.000000 -0.000002 -1.000000
vn 0.000000 -1.000000 -0.000000
vn 0.000000 -1.000000 -0.000000
vn 0.000000 -0.000004 -1.000000
vn 0.000000 -0.000004 -1.000000
vn -0.110634 0.993860 0.001514
vn -0.055399 0.998464 0.000758
vn 0.005857 0.999983 -0.000000
vn 0.011713 0.999931 -0.000000
vn -0.383269 0.923625 -0.004675
vn -0.383269 0.923625 -0.004675
vn 0.000000 -1.000000 0.000000
vn 0.000000 -1.000000 0.000000
vn 0.000000 -1.000000 0.000000
vn 0.000000 -1.000000 0.000000
vn 0.581710 0.813374 -0.006064
vn 0.581710 0.813374 -0.006064
vn -0.120924 0.992662 -0.000000
vn -0.060571 0.998164 -0.000000
vn 0.013588 0.999907 0.001163
vn 0.027175 0.999628 0.002325
vn -0.400955 0.916074 0.006552
vn -0.400955 0.916074 0.006552
vn -0.000000 -1.000000 0.000000
vn -0.000000 -1.000000 0.000000
vn -0.000000 -1.000000 0.000000
vn -0.000000 -1.000000 0.000000
vn 0.589035 0.808079 0.006736
vn 0.589035 0.808079 0.006736
vn -0.060570 0.998148 -0.005675
vn -0.120917 0.992598 -0.011329
vn 0.021320 0.999773 0.000000
vn 0.042630 0.999091 0.000000
vn -0.387923 0.921685 0.003602
vn -0.387923 0.921685 0.003602
vn -0.000000 -1.000000 0.000000
vn -0.000000 -1.000000 0.000000
vn -0.000000 -1.000000 0.000000
vn -0.000000 -1.000000 0.000000
vn 0.541249 0.840849 0.004631
vn 0.541249 0.840849 0.004631
s 1
g Road_01
usemtl lambert2SG
f 1/1/1 23/2/2 24/3/3 3/4/4
s 2
f 17/9/5 10/10/6 3/4/7 24/3/8
f 18/14/9 19/20/10 5/21/11 14/15/12
s 4
f 5/21/13 19/20/14 20/24/15 7/25/16
s 5
f 22/38/17 23/45/18 1/46/19 11/39/20
s 6
f 9/55/21 4/57/22 2/58/23 12/56/24
s 7
f 5/60/25 7/59/26 15/61/27 14/62/28
f 10/64/29 11/63/30 1/65/31 3/66/32
s 2
f 10/10/6 17/9/5 18/14/9 14/15/12
s 7
f 15/61/27 11/63/30 10/64/29 14/62/28
s 5
f 15/35/33 21/34/34 22/38/17 11/39/20
s 6
f 9/55/21 12/56/24 16/54/35 13/53/36
s 5
f 20/31/37 21/34/34 15/35/33 7/32/38
s 6
f 6/52/39 13/53/36 16/54/35 8/51/40
s 2
f 25/6/41 26/13/42 17/9/5 24/3/8
f 18/14/9 17/9/5 26/13/42 27/17/43
f 27/17/43 28/23/44 19/20/10 18/14/9
s 4
f 20/24/15 19/20/14 28/23/45 29/27/46
s 5
f 29/33/47 30/37/48 21/34/34 20/31/37
f 22/38/17 21/34/34 30/37/48 31/42/49
f 31/42/49 32/48/50 23/45/18 22/38/17
s 1
f 24/3/3 23/2/2 32/5/51 25/6/52
s 2
f 33/8/53 34/16/54 26/13/42 25/6/41
f 27/17/43 26/13/42 34/16/54 35/19/55
f 35/19/55 36/26/56 28/23/44 27/17/43
s 4
f 29/27/46 28/23/45 36/26/57 37/29/58
s 5
f 37/36/59 38/41/60 30/37/48 29/33/47
f 31/42/49 30/37/48 38/41/60 39/44/61
f 39/44/61 40/49/62 32/48/50 31/42/49
s 1
f 25/6/52 32/5/51 40/7/63 33/8/64
s 2
f 9/18/65 34/16/54 33/8/53 4/12/66
f 35/19/55 34/16/54 9/18/65 13/22/67
f 6/28/68 36/26/56 35/19/55 13/22/67
s 4
f 37/29/58 36/26/57 6/28/69 8/30/70
s 5
f 16/43/71 38/41/60 37/36/59 8/40/72
f 39/44/61 38/41/60 16/43/71 12/47/73
f 2/50/74 40/49/62 39/44/61 12/47/73
s 1
f 33/8/64 40/7/63 2/11/75 4/12/76