# This file uses centimeters as units for non-parametric coordinates.

mtllib Road_02.mtl
g default
v 4.721448 0.002489 6.251625
v -4.721448 0.000000 -6.251625
v 4.313107 0.202574 6.251625
v -4.721448 0.202574 -5.782930
v 0.243998 0.202574 6.251624
v -4.721448 0.202574 -1.713820
v -0.224698 0.002489 6.251624
v -4.721448 0.000000 -1.305480
v -4.721449 0.183347 -5.297750
v 3.839634 0.183347 6.251625
v 3.839633 0.002489 6.251625
v -4.721448 0.000000 -5.450852
v -4.721448 0.183347 -2.187294
v 0.729178 0.183347 6.251625
v 0.729177 0.002489 6.251625
v -4.721446 0.000000 -2.340396
v 3.839633 0.183347 3.251625
v 0.956177 0.166302 3.395440
v 0.470998 0.185530 3.395440
v -0.112556 0.000000 3.395440
v 0.956177 0.000000 3.395440
v 3.839633 0.000000 3.251625
v 4.721448 0.000000 3.251625
v 4.313107 0.252641 3.251625
v 3.307167 0.166584 -1.729627
v 2.966469 0.147356 -1.400839
v 0.254851 0.183347 0.528782
v -0.094273 0.174676 0.865699
v -0.336500 0.000000 1.099457
v 0.254850 0.002489 0.528782
v 2.966469 0.000000 -1.400839
v 3.487505 0.000000 -1.903661
v -0.515572 0.271056 -4.774218
v -0.677451 0.183347 -4.329277
v -1.740902 0.183347 -1.406262
v -1.906781 0.202574 -0.950320
v -2.047976 0.000000 -0.562226
v -1.740901 0.000000 -1.406262
v -0.677451 0.000000 -4.329276
v -0.429888 0.000000 -5.009732
vt -0.700000 0.003754
vt -0.099769 0.003754
vt -0.099769 0.085692
vt -0.700000 0.085692
vt 0.500000 0.003754
vt 0.500000 0.085692
vt 1.104123 0.003754
vt 1.104123 0.085692
vt -0.099769 0.180699
vt -0.700000 0.180699
vt 1.750000 0.003754
vt 1.750000 0.085692
vt 0.500000 0.180699
vt -0.099769 0.804841
vt -0.700000 0.804841
vt 1.104123 0.180699
vt 0.500000 0.804842
vt 1.750000 0.180699
vt 1.104123 0.804841
vt -0.099769 0.902197
vt -0.700000 0.902197
vt 1.750000 0.804841
vt 0.500000 0.902197
vt -0.099769 0.996246
vt -0.700000 0.996246
vt 1.104123 0.902197
vt 0.500000 0.996246
vt 1.750000 0.902197
vt 1.104123 0.996246
vt 1.750000 0.996246
vt 0.014290 -0.779478
vt -0.224794 -0.779478
vt 0.265788 -0.779478
vt 0.014290 -0.699573
vt -0.224794 -0.699573
vt 0.516876 -0.779478
vt 0.265788 -0.699573
vt 0.014290 -0.439014
vt -0.224794 -0.439014
vt 0.771221 -0.779478
vt 0.516876 -0.699573
vt 0.265788 -0.439014
vt 0.771222 -0.699573
vt 0.516876 -0.439014
vt 0.014290 -0.365145
vt -0.224794 -0.365145
vt 0.771221 -0.439014
vt 0.265787 -0.365145
vt 0.516876 -0.365145
vt 0.771222 -0.365145
vt 0.771221 -0.358999
vt 0.731959 -0.342238
vt 0.691316 -0.352400
vt 0.691316 -0.358999
vt 0.430758 -0.352400
vt 0.430758 -0.358999
vt 0.391095 -0.342238
vt 0.356889 -0.358999
vt 0.356889 -0.335738
vt 0.396151 -0.318977
vt 0.436794 -0.335738
vt 0.436794 -0.329139
vt 0.697353 -0.335738
vt 0.697353 -0.329139
vt 0.771221 -0.335738
vt 0.737015 -0.318977
vn 0.484824 0.874584 0.006935
vn 0.518930 0.852639 -0.060971
vn 0.518930 0.852639 -0.060971
vn 0.484824 0.874584 0.006935
vn -0.049726 0.998760 0.002543
vn -0.048044 0.998842 0.002645
vn -0.093073 0.995625 0.008308
vn -0.099010 0.995054 0.008090
vn 0.012736 0.999915 -0.002625
vn 0.025792 0.999665 -0.002240
vn 0.039599 0.999212 -0.002816
vn 0.018345 0.999828 -0.002920
vn -0.343994 0.938675 -0.023633
vn -0.364693 0.930942 0.018615
vn -0.364693 0.930942 0.018615
vn -0.343994 0.938675 -0.023633
vn -0.000127 -1.000000 0.000365
vn -0.000000 -1.000000 0.000415
vn 0.000000 -1.000000 0.000830
vn 0.000010 -1.000000 0.000840
vn -1.000000 -0.000005 -0.000000
vn -1.000000 0.000000 -0.000001
vn -1.000000 0.000000 -0.000001
vn -1.000000 -0.000005 -0.000000
vn -0.000001 0.000001 1.000000
vn -0.000001 0.000001 1.000000
vn -0.000001 -0.000000 1.000000
vn -0.000001 -0.000000 1.000000
vn 0.000000 -0.000001 1.000000
vn 0.000000 -0.000001 1.000000
vn 0.000001 -0.000001 1.000000
vn 0.000001 -0.000001 1.000000
vn 0.000010 -1.000000 0.000861
vn 0.000187 -1.000000 0.000199
vn -1.000000 -0.000007 -0.000000
vn -1.000000 -0.000007 -0.000000
vn 0.000628 -1.000000 0.000082
vn 0.000000 -1.000000 0.000871
vn -1.000000 -0.000005 -0.000001
vn -1.000000 -0.000005 -0.000001
vn -0.082565 0.995166 0.053170
vn -0.038826 0.998921 0.025486
vn 0.008592 0.999959 -0.002837
vn 0.012223 0.999919 -0.003441
vn -0.358270 0.911834 0.200505
vn -0.358270 0.911834 0.200505
vn 0.001364 -0.999999 -0.000766
vn 0.000550 -1.000000 -0.000310
vn -0.000132 -1.000000 0.000073
vn 0.000000 -1.000000 -0.000000
vn 0.497255 0.801892 -0.331221
vn 0.497255 0.801892 -0.331221
vn -0.047091 0.993533 0.103314
vn -0.021669 0.998444 0.051374
vn 0.007658 0.999904 -0.011539
vn 0.011493 0.999684 -0.022344
vn -0.223294 0.894524 0.387255
vn -0.223294 0.894524 0.387255
vn 0.000736 -1.000000 -0.000412
vn 0.000368 -1.000000 -0.000078
vn -0.000000 -1.000000 0.000128
vn 0.000000 -1.000000 0.000000
vn 0.282857 0.795189 -0.536345
vn 0.282857 0.795189 -0.536345
vn -0.017126 0.998382 0.054226
vn -0.034197 0.993533 0.108276
vn 0.005260 0.999791 -0.019736
vn 0.010518 0.999166 -0.039464
vn -0.118975 0.893338 0.433351
vn -0.118975 0.893338 0.433351
vn 0.000000 -1.000000 0.000000
vn 0.000000 -1.000000 0.000000
vn 0.000000 -1.000000 0.000000
vn 0.000000 -1.000000 0.000000
vn 0.136693 0.829616 -0.541343
vn 0.136693 0.829616 -0.541343
s 1
g pCube6
usemtl lambert2SG
f 1/1/1 23/2/2 24/3/3 3/4/4
s 2
f 17/9/5 10/10/6 3/4/7 24/3/8
f 18/14/9 19/20/10 5/21/11 14/15/12
s 4
f 5/21/13 19/20/14 20/24/15 7/25/16
s 5
f 22/38/17 23/45/18 1/46/19 11/39/20
s 6
f 9/55/21 4/57/22 2/58/23 12/56/24
s 7
f 5/60/25 7/59/26 15/61/27 14/62/28
f 10/64/29 11/63/30 1/65/31 3/66/32
s 2
f 10/10/6 17/9/5 18/14/9 14/15/12
s 7
f 15/61/27 11/63/30 10/64/29 14/62/28
s 5
f 15/35/33 21/34/34 22/38/17 11/39/20
s 6
f 9/55/21 12/56/24 16/54/35 13/53/36
s 5
f 20/31/37 21/34/34 15/35/33 7/32/38
s 6
f 6/52/39 13/53/36 16/54/35 8/51/40
s 2
f 25/6/41 26/13/42 17/9/5 24/3/8
f 18/14/9 17/9/5 26/13/42 27/17/43
f 27/17/43 28/23/44 19/20/10 18/14/9
s 4
f 20/24/15 19/20/14 28/23/45 29/27/46
s 5
f 29/33/47 30/37/48 21/34/34 20/31/37
f 22/38/17 21/34/34 30/37/48 31/42/49
f 31/42/49 32/48/50 23/45/18 22/38/17
s 1
f 24/3/3 23/2/2 32/5/51 25/6/52
s 2
f 33/8/53 34/16/54 26/13/42 25/6/41
f 27/17/43 26/13/42 34/16/54 35/19/55
f 35/19/55 36/26/56 28/23/44 27/17/43
s 4
f 29/27/46 28/23/45 36/26/57 37/29/58
s 5
f 37/36/59 38/41/60 30/37/48 29/33/47
f 31/42/49 30/37/48 38/41/60 39/44/61
f 39/44/61 40/49/62 32/48/50 31/42/49
s 1
f 25/6/52 32/5/51 40/7/63 33/8/64
s 2
f 9/18/65 34/16/54 33/8/53 4/12/66
f 35/19/55 34/16/54 9/18/65 13/22/67
f 6/28/68 36/26/56 35/19/55 13/22/67
s 4
f 37/29/58 36/26/57 6/28/69 8/30/70
s 5
f 16/43/71 38/41/60 37/36/59 8/40/72
f 39/44/61 38/41/60 16/43/71 12/47/73
f 2/50/74 40/49/62 39/44/61 12/47/73
s 1
f 33/8/64 40/7/63 2/11/75 4/12/76