# Blender v2.79 (sub 0) OBJ File: 'bases.blend'
# www.blender.org
mtllib ba2d-25m1.mtl
o base25m
v 0.000000 -0.000000 -0.502789
v 0.000000 0.094963 -0.502789
v 0.098089 -0.000000 -0.493128
v 0.098089 0.094963 -0.493128
v 0.192409 -0.000000 -0.464516
v 0.192409 0.094963 -0.464516
v 0.279335 -0.000000 -0.418054
v 0.279335 0.094963 -0.418054
v 0.355525 -0.000000 -0.355525
v 0.355525 0.094963 -0.355525
v 0.418054 -0.000000 -0.279335
v 0.418054 0.094963 -0.279335
v 0.464516 -0.000000 -0.192409
v 0.464516 0.094963 -0.192409
v 0.493128 -0.000000 -0.098089
v 0.493128 0.094963 -0.098089
v 0.502789 -0.000000 -0.000000
v 0.502789 0.094963 -0.000000
v 0.493128 -0.000000 0.098089
v 0.493128 0.094963 0.098089
v 0.464516 -0.000000 0.192409
v 0.464516 0.094963 0.192409
v 0.418054 -0.000000 0.279335
v 0.418054 0.094963 0.279335
v 0.355525 -0.000000 0.355525
v 0.355525 0.094963 0.355525
v 0.279335 -0.000000 0.418054
v 0.279335 0.094963 0.418054
v 0.192409 -0.000000 0.464516
v 0.192409 0.094963 0.464516
v 0.098089 -0.000000 0.493128
v 0.098089 0.094963 0.493128
v -0.000000 -0.000000 0.502789
v -0.000000 0.094963 0.502789
v -0.098089 -0.000000 0.493128
v -0.098089 0.094963 0.493128
v -0.192409 -0.000000 0.464516
v -0.192409 0.094963 0.464516
v -0.279335 -0.000000 0.418054
v -0.279335 0.094963 0.418054
v -0.355526 -0.000000 0.355525
v -0.355526 0.094963 0.355525
v -0.418054 -0.000000 0.279334
v -0.418054 0.094963 0.279334
v -0.464517 -0.000000 0.192409
v -0.464517 0.094963 0.192409
v -0.493128 -0.000000 0.098089
v -0.493128 0.094963 0.098089
v -0.502789 -0.000000 -0.000000
v -0.502789 0.094963 -0.000000
v -0.493128 -0.000000 -0.098090
v -0.493128 0.094963 -0.098090
v -0.464516 -0.000000 -0.192410
v -0.464516 0.094963 -0.192410
v -0.418053 -0.000000 -0.279335
v -0.418053 0.094963 -0.279335
v -0.355525 -0.000000 -0.355526
v -0.355525 0.094963 -0.355526
v -0.279334 -0.000000 -0.418054
v -0.279334 0.094963 -0.418054
v -0.192408 -0.000000 -0.464517
v -0.192408 0.094963 -0.464517
v -0.098088 -0.000000 -0.493128
v -0.098088 0.094963 -0.493128
vt 0.491823 0.001574
vt 0.508177 0.001574
vt 0.508177 0.017927
vt 0.491823 0.017927
vt 0.491823 0.001574
vt 0.508177 0.001574
vt 0.508177 0.017927
vt 0.491823 0.017927
vt 0.491823 0.001574
vt 0.508177 0.001574
vt 0.508177 0.017927
vt 0.491823 0.017927
vt 0.491823 0.001574
vt 0.508177 0.001574
vt 0.508177 0.017927
vt 0.491823 0.017927
vt 0.491823 0.001574
vt 0.508177 0.001574
vt 0.508177 0.017927
vt 0.491823 0.017927
vt 0.491823 0.001574
vt 0.508177 0.001574
vt 0.508177 0.017927
vt 0.491823 0.017927
vt 0.491823 0.001574
vt 0.508177 0.001574
vt 0.508177 0.017927
vt 0.491823 0.017927
vt 0.491823 0.001574
vt 0.508177 0.001574
vt 0.508177 0.017927
vt 0.491823 0.017927
vt 0.491823 0.001574
vt 0.508177 0.001574
vt 0.508177 0.017927
vt 0.491823 0.017927
vt 0.491823 0.001574
vt 0.508177 0.001574
vt 0.508177 0.017927
vt 0.491823 0.017927
vt 0.491823 0.001574
vt 0.508177 0.001574
vt 0.508177 0.017927
vt 0.491823 0.017927
vt 0.491823 0.001574
vt 0.508177 0.001574
vt 0.508177 0.017927
vt 0.491823 0.017927
vt 0.491823 0.001574
vt 0.508177 0.001574
vt 0.508177 0.017927
vt 0.491823 0.017927
vt 0.491823 0.001574
vt 0.508177 0.001574
vt 0.508177 0.017927
vt 0.491823 0.017927
vt 0.491823 0.001574
vt 0.508177 0.001574
vt 0.508177 0.017927
vt 0.491823 0.017927
vt 0.491823 0.001574
vt 0.508177 0.001574
vt 0.508177 0.017927
vt 0.491823 0.017927
vt 0.491823 0.001574
vt 0.508177 0.001574
vt 0.508177 0.017927
vt 0.491823 0.017927
vt 0.491823 0.001574
vt 0.508177 0.001574
vt 0.508177 0.017927
vt 0.491823 0.017927
vt 0.491823 0.001574
vt 0.508177 0.001574
vt 0.508177 0.017927
vt 0.491823 0.017927
vt 0.491823 0.001574
vt 0.508177 0.001574
vt 0.508177 0.017927
vt 0.491823 0.017927
vt 0.491823 0.001574
vt 0.508177 0.001574
vt 0.508177 0.017927
vt 0.491823 0.017927
vt 0.491823 0.001574
vt 0.508177 0.001574
vt 0.508177 0.017927
vt 0.491823 0.017927
vt 0.491823 0.001574
vt 0.508177 0.001574
vt 0.508177 0.017927
vt 0.491823 0.017927
vt 0.491823 0.001574
vt 0.508177 0.001574
vt 0.508177 0.017927
vt 0.491823 0.017927
vt 0.491823 0.001574
vt 0.508177 0.001574
vt 0.508177 0.017927
vt 0.491823 0.017927
vt 0.491823 0.001574
vt 0.508177 0.001574
vt 0.508177 0.017927
vt 0.491823 0.017927
vt 0.491823 0.001574
vt 0.508177 0.001574
vt 0.508177 0.017927
vt 0.491823 0.017927
vt 0.491823 0.001574
vt 0.508177 0.001574
vt 0.508177 0.017927
vt 0.491823 0.017927
vt 0.491823 0.001574
vt 0.508177 0.001574
vt 0.508177 0.017927
vt 0.491823 0.017927
vt 0.491823 0.001574
vt 0.508177 0.001574
vt 0.508177 0.017927
vt 0.491823 0.017927
vt 0.501595 0.001731
vt 0.491980 0.008155
vt 0.498405 0.017770
vt 0.491823 0.001574
vt 0.508177 0.001574
vt 0.508177 0.017927
vt 0.491823 0.017927
vt 0.491823 0.001574
vt 0.508177 0.001574
vt 0.508177 0.017927
vt 0.491823 0.017927
vt 0.501595 0.001731
vt 0.491980 0.008155
vt 0.508020 0.011346
vt 0.500000 0.017927
vt 0.501595 0.017770
vt 0.503129 0.017305
vt 0.504543 0.016549
vt 0.505782 0.015532
vt 0.508020 0.011346
vt 0.506799 0.014293
vt 0.507554 0.012880
vt 0.508177 0.009750
vt 0.508020 0.008155
vt 0.507554 0.006621
vt 0.506799 0.005208
vt 0.505782 0.003969
vt 0.504543 0.002952
vt 0.503129 0.002196
vt 0.500000 0.001574
vt 0.498405 0.001731
vt 0.496871 0.002196
vt 0.495457 0.002952
vt 0.494218 0.003969
vt 0.493201 0.005208
vt 0.492446 0.006621
vt 0.491823 0.009750
vt 0.491980 0.011346
vt 0.492446 0.012880
vt 0.493201 0.014293
vt 0.494218 0.015532
vt 0.495457 0.016549
vt 0.496871 0.017305
vt 0.498405 0.017770
vt 0.500000 0.017927
vt 0.501595 0.017770
vt 0.503129 0.017305
vt 0.504543 0.016549
vt 0.505782 0.015532
vt 0.506799 0.014293
vt 0.507554 0.012880
vt 0.508177 0.009750
vt 0.508020 0.008155
vt 0.507554 0.006621
vt 0.506799 0.005208
vt 0.505782 0.003969
vt 0.504543 0.002952
vt 0.503129 0.002196
vt 0.500000 0.001574
vt 0.498405 0.001731
vt 0.496871 0.002196
vt 0.495457 0.002952
vt 0.494218 0.003969
vt 0.493201 0.005208
vt 0.492446 0.006621
vt 0.491823 0.009750
vt 0.491980 0.011346
vt 0.492446 0.012880
vt 0.493201 0.014293
vt 0.494218 0.015532
vt 0.495457 0.016549
vt 0.496871 0.017305
vn 0.0980 0.0000 -0.9952
vn 0.2903 0.0000 -0.9569
vn 0.4714 0.0000 -0.8819
vn 0.6344 0.0000 -0.7730
vn 0.7730 0.0000 -0.6344
vn 0.8819 0.0000 -0.4714
vn 0.9569 0.0000 -0.2903
vn 0.9952 0.0000 -0.0980
vn 0.9952 0.0000 0.0980
vn 0.9569 0.0000 0.2903
vn 0.8819 0.0000 0.4714
vn 0.7730 0.0000 0.6344
vn 0.6344 0.0000 0.7730
vn 0.4714 0.0000 0.8819
vn 0.2903 0.0000 0.9569
vn 0.0980 0.0000 0.9952
vn -0.0980 0.0000 0.9952
vn -0.2903 0.0000 0.9569
vn -0.4714 0.0000 0.8819
vn -0.6344 0.0000 0.7730
vn -0.7730 0.0000 0.6344
vn -0.8819 0.0000 0.4714
vn -0.9569 0.0000 0.2903
vn -0.9952 0.0000 0.0980
vn -0.9952 0.0000 -0.0980
vn -0.9569 0.0000 -0.2903
vn -0.8819 0.0000 -0.4714
vn -0.7730 0.0000 -0.6344
vn -0.6344 0.0000 -0.7730
vn -0.4714 0.0000 -0.8819
vn 0.0000 1.0000 0.0000
vn -0.2903 0.0000 -0.9569
vn -0.0980 0.0000 -0.9952
vn 0.0000 -1.0000 0.0000
usemtl None
s off
f 1/1/1 2/2/1 4/3/1 3/4/1
f 3/5/2 4/6/2 6/7/2 5/8/2
f 5/9/3 6/10/3 8/11/3 7/12/3
f 7/13/4 8/14/4 10/15/4 9/16/4
f 9/17/5 10/18/5 12/19/5 11/20/5
f 11/21/6 12/22/6 14/23/6 13/24/6
f 13/25/7 14/26/7 16/27/7 15/28/7
f 15/29/8 16/30/8 18/31/8 17/32/8
f 17/33/9 18/34/9 20/35/9 19/36/9
f 19/37/10 20/38/10 22/39/10 21/40/10
f 21/41/11 22/42/11 24/43/11 23/44/11
f 23/45/12 24/46/12 26/47/12 25/48/12
f 25/49/13 26/50/13 28/51/13 27/52/13
f 27/53/14 28/54/14 30/55/14 29/56/14
f 29/57/15 30/58/15 32/59/15 31/60/15
f 31/61/16 32/62/16 34/63/16 33/64/16
f 33/65/17 34/66/17 36/67/17 35/68/17
f 35/69/18 36/70/18 38/71/18 37/72/18
f 37/73/19 38/74/19 40/75/19 39/76/19
f 39/77/20 40/78/20 42/79/20 41/80/20
f 41/81/21 42/82/21 44/83/21 43/84/21
f 43/85/22 44/86/22 46/87/22 45/88/22
f 45/89/23 46/90/23 48/91/23 47/92/23
f 47/93/24 48/94/24 50/95/24 49/96/24
f 49/97/25 50/98/25 52/99/25 51/100/25
f 51/101/26 52/102/26 54/103/26 53/104/26
f 53/105/27 54/106/27 56/107/27 55/108/27
f 55/109/28 56/110/28 58/111/28 57/112/28
f 57/113/29 58/114/29 60/115/29 59/116/29
f 59/117/30 60/118/30 62/119/30 61/120/30
f 38/121/31 22/122/31 6/123/31
f 61/124/32 62/125/32 64/126/32 63/127/32
f 63/128/33 64/129/33 2/130/33 1/131/33
f 31/132/34 47/133/34 15/134/34
f 6/123/31 4/135/31 2/136/31
f 2/136/31 64/137/31 6/123/31
f 62/138/31 60/139/31 54/140/31
f 58/141/31 56/142/31 54/140/31
f 54/140/31 52/143/31 50/144/31
f 50/144/31 48/145/31 54/140/31
f 46/146/31 44/147/31 42/148/31
f 42/148/31 40/149/31 46/146/31
f 38/121/31 36/150/31 34/151/31
f 34/151/31 32/152/31 38/121/31
f 30/153/31 28/154/31 26/155/31
f 26/155/31 24/156/31 22/122/31
f 22/122/31 20/157/31 18/158/31
f 18/158/31 16/159/31 22/122/31
f 14/160/31 12/161/31 10/162/31
f 10/162/31 8/163/31 6/123/31
f 6/123/31 64/137/31 62/138/31
f 60/139/31 58/141/31 54/140/31
f 54/140/31 48/145/31 46/146/31
f 46/146/31 40/149/31 38/121/31
f 38/121/31 32/152/31 30/153/31
f 30/153/31 26/155/31 38/121/31
f 22/122/31 16/159/31 14/160/31
f 14/160/31 10/162/31 6/123/31
f 6/123/31 62/138/31 54/140/31
f 54/140/31 46/146/31 6/123/31
f 38/121/31 26/155/31 22/122/31
f 22/122/31 14/160/31 6/123/31
f 6/123/31 46/146/31 38/121/31
f 63/164/34 1/165/34 3/166/34
f 3/166/34 5/167/34 7/168/34
f 7/168/34 9/169/34 11/170/34
f 11/170/34 13/171/34 7/168/34
f 15/134/34 17/172/34 19/173/34
f 19/173/34 21/174/34 15/134/34
f 23/175/34 25/176/34 31/132/34
f 27/177/34 29/178/34 31/132/34
f 31/132/34 33/179/34 35/180/34
f 35/180/34 37/181/34 39/182/34
f 39/182/34 41/183/34 43/184/34
f 43/184/34 45/185/34 47/133/34
f 47/133/34 49/186/34 51/187/34
f 51/187/34 53/188/34 55/189/34
f 55/189/34 57/190/34 59/191/34
f 59/191/34 61/192/34 63/164/34
f 63/164/34 3/166/34 15/134/34
f 7/168/34 13/171/34 15/134/34
f 15/134/34 21/174/34 23/175/34
f 25/176/34 27/177/34 31/132/34
f 31/132/34 35/180/34 47/133/34
f 39/182/34 43/184/34 47/133/34
f 47/133/34 51/187/34 63/164/34
f 55/189/34 59/191/34 63/164/34
f 3/166/34 7/168/34 15/134/34
f 15/134/34 23/175/34 31/132/34
f 35/180/34 39/182/34 47/133/34
f 51/187/34 55/189/34 63/164/34
f 63/164/34 15/134/34 47/133/34
o face-inv
v -1.000000 0.094964 0.000000
v 1.000000 0.094964 -0.000001
v -1.000000 2.094964 0.000001
v 1.000000 2.094964 -0.000000
vt 0.000100 0.000100
vt 0.000100 0.999900
vt 0.999900 0.999900
vt 0.999900 0.000100
vn -0.0000 0.0000 -1.0000
usemtl texture
s off
f 65/193/35 67/194/35 68/195/35 66/196/35
o face
v -1.000000 0.094964 -0.000000
v 1.000000 0.094964 -0.000000
v -1.000000 2.094964 0.000000
v 1.000000 2.094964 0.000000
vt 0.000100 0.000100
vt 0.999900 0.000100
vt 0.999900 0.999900
vt 0.000100 0.999900
vn 0.0000 -0.0000 1.0000
usemtl texture
s off
f 69/197/36 70/198/36 72/199/36 71/200/36
