# Blender v2.77 (sub 0) OBJ File: ''
# www.blender.org
mtllib gravelfortracks.mtl
o Cube.001
v -1.000000 0.017087 5.963497
v -0.766286 0.094185 5.963497
v -1.000000 0.017087 -5.963497
v -0.766286 0.091024 -5.963497
v 1.000000 0.017087 5.963497
v 0.766286 0.094185 5.963497
v 1.000000 0.017087 -5.963497
v 0.766286 0.091024 -5.963497
vt -2.2571 -0.0526
vt 3.2571 -0.0526
vt 3.2571 0.0603
vt -2.2571 0.0603
vt 3.2571 0.4543
vt 3.2571 1.1545
vt 3.2247 1.2613
vt 3.2247 0.3475
vt 3.2571 -0.7611
vt -2.2571 -0.7611
vt -2.2571 -0.8740
vt 3.2571 -0.8740
vt -2.2571 1.1545
vt -2.2571 0.4543
vt -2.2247 0.3475
vt -2.2247 1.2613
vn -0.3075 0.9516 -0.0001
vn 0.0000 0.0000 -1.0000
vn 0.3075 0.9516 -0.0001
vn 0.0000 0.0000 1.0000
vn 0.0000 -1.0000 0.0000
vn 0.0000 1.0000 -0.0003
usemtl None
s off
f 2/1/1 4/2/1 3/3/1 1/4/1
f 4/5/2 8/6/2 7/7/2 3/8/2
f 8/9/3 6/10/3 5/11/3 7/12/3
f 6/13/4 2/14/4 1/15/4 5/16/4
f 1/15/5 3/8/5 7/7/5 5/16/5
f 6/10/6 8/9/6 4/2/6 2/1/6
