# Blender v2.79 (sub 0) OBJ File: ''
# www.blender.org
mtllib ts.mtl
o Cube_Cube.000_Cube_Cube.002
v -10.046097 0.063462 34.181488
v -10.046097 -2.912372 34.181488
v 10.046059 0.063462 34.181484
v 10.046059 -2.912372 34.181484
v 10.046043 -2.912360 -34.500004
v 10.046043 0.063473 -34.500004
v -10.046127 0.063473 -34.500004
v -10.046112 -2.912360 -34.500004
v -9.041519 0.063462 33.192101
v -9.041550 0.063473 -33.510624
v 9.041420 -1.959378 33.192101
v 9.041409 -1.959367 -33.510624
v -9.041550 -1.959367 -33.510624
v 9.041420 0.063462 33.192101
v -9.041519 -1.959378 33.192101
v 9.041409 0.063473 -33.510624
vt 0.120849 0.960962
vt 0.027202 0.960962
vt 0.120849 0.049978
vt 0.027202 0.960962
vt 0.027202 0.049477
vt 0.120849 0.049978
vt 0.120849 0.049978
vt 0.027202 0.049477
vt 1.000000 -0.000000
vt 0.308333 -0.000000
vt 0.308333 1.000000
vt 0.036076 0.949154
vt 0.104361 0.122849
vt 0.104361 0.949154
vt 1.000000 -0.000000
vt 1.000000 1.000000
vt 0.308333 1.000000
vt 0.278486 0.049978
vt 0.184840 0.049477
vt 0.184840 0.960962
vt 0.278487 0.960962
vt 0.184840 0.049477
vt 0.278486 0.049978
vt 0.184840 0.049477
vt 0.184840 0.960962
vt 0.278487 0.960962
vt 0.184840 0.960962
vt 0.038014 0.811042
vt 0.038014 0.292369
vt 0.100453 0.811043
vt 0.100452 0.292370
vt 0.027202 0.960962
vt 0.036678 0.815233
vt 0.036678 0.296560
vt 0.099117 0.815233
vt 0.120849 0.960962
vt 1.000000 1.000000
vt 0.027202 0.049477
vt 0.036076 0.122849
vt 0.036076 0.949154
vt 0.036076 0.122849
vt 0.104361 0.949154
vt 0.120849 0.960962
vt 0.104361 0.122849
vt 0.099118 0.296560
vt 0.308333 -0.000000
vt 0.278486 0.049978
vt 0.278487 0.960962
vn 0.0000 0.0000 1.0000
vn 1.0000 0.0000 -0.0000
vn -1.0000 -0.0000 0.0000
vn -0.0000 -1.0000 -0.0000
vn -0.0000 1.0000 0.0000
vn 0.0000 0.0000 -1.0000
usemtl None.001
s off
f 1/1/1 2/2/1 3/3/1
f 4/4/2 5/5/2 6/6/2
f 7/7/3 8/8/3 2/2/3
f 4/9/4 2/10/4 8/11/4
f 7/12/5 9/13/5 10/14/5
f 11/15/5 12/16/5 13/17/5
f 14/18/6 11/19/6 15/20/6
f 9/21/2 15/20/2 13/22/2
f 16/23/3 12/24/3 11/25/3
f 10/26/1 13/27/1 12/24/1
f 10/28/5 16/29/5 7/30/5
f 16/29/5 6/31/5 7/30/5
f 8/32/6 6/6/6 5/5/6
f 1/33/5 3/34/5 9/35/5
f 3/36/2 4/4/2 6/6/2
f 1/1/3 7/7/3 2/2/3
f 5/37/4 4/9/4 8/11/4
f 3/3/1 2/2/1 4/38/1
f 1/39/5 9/13/5 7/12/5
f 16/40/5 14/41/5 6/42/5
f 8/32/6 7/43/6 6/6/6
f 14/41/5 3/44/5 6/42/5
f 3/34/5 14/45/5 9/35/5
f 15/46/5 11/15/5 13/17/5
f 9/21/6 14/18/6 15/20/6
f 10/47/2 9/21/2 13/22/2
f 14/48/3 16/23/3 11/25/3
f 16/23/1 10/26/1 12/24/1
