# Blender v2.77 (sub 0) OBJ File: 'Chibijagdtiger.blend'
# www.blender.org
mtllib T-34-85-Body_collider.mtl
o Cube_Cube.001
v -1.445694 0.027695 2.849290
v -1.445694 1.529780 2.849290
v -1.445694 0.027695 -2.825567
v -1.445694 1.529780 -2.825567
v 1.404649 0.027695 2.849290
v 1.404649 1.529780 2.849290
v 1.404649 0.027695 -2.825567
v 1.404649 1.529780 -2.825567
vn -1.0000 0.0000 0.0000
vn 0.0000 0.0000 -1.0000
vn 1.0000 0.0000 0.0000
vn 0.0000 0.0000 1.0000
vn 0.0000 -1.0000 0.0000
vn 0.0000 1.0000 0.0000
usemtl None
s off
f 2//1 4//1 3//1 1//1
f 4//2 8//2 7//2 3//2
f 8//3 6//3 5//3 7//3
f 6//4 2//4 1//4 5//4
f 1//5 3//5 7//5 5//5
f 6//6 8//6 4//6 2//6
